<svg width="473" height="341" viewBox="0 0 473 341" fill="none" xmlns="http://www.w3.org/2000/svg">
<g clip-path="url(#clip0)">
<rect x="66" y="221.5" width="339" height="30" fill="#49351C" fill-opacity="0.66"/>
<path d="M66 260.5H405L339 288.5L66 260.5Z" fill="#49351C" fill-opacity="0.5"/>
<path d="M66 303.5H332.5L273.5 325.5L66 303.5Z" fill="#C4C4C4" fill-opacity="0.3"/>
<path d="M341 294.5H66V268.5L341 294.5Z" fill="#49351C" fill-opacity="0.3"/>
<path fill-rule="evenodd" clip-rule="evenodd" d="M160.583 151.84C164.116 145.568 166.283 141.678 167.539 139.384C171.467 132.212 166.487 140.642 166.487 140.642C163.256 144.222 160.583 151.84 160.583 151.84Z" fill="#7BBFFD" fill-opacity="0.74"/>
<path fill-rule="evenodd" clip-rule="evenodd" d="M160.583 151.84C164.116 145.568 166.283 141.678 167.539 139.384C171.467 132.212 166.487 140.642 166.487 140.642C163.256 144.222 160.583 151.84 160.583 151.84Z" fill="url(#paint0_linear)"/>
<path fill-rule="evenodd" clip-rule="evenodd" d="M160.583 151.84C164.116 145.568 166.283 141.678 167.539 139.384C171.467 132.212 166.487 140.642 166.487 140.642C163.256 144.222 160.583 151.84 160.583 151.84Z" fill="url(#paint1_linear)"/>
<path d="M260.209 220.725C359.429 226.3 383.323 145.867 359.429 82.9537C359.429 82.9537 308.453 61.121 248.577 81.674C229.829 110.66 218.251 151.519 190.952 159.247C180.52 162.201 172.019 163.622 166.527 162.841C192.586 205.456 238.863 219.253 260.209 220.725Z" fill="#7BBFFD" fill-opacity="0.74"/>
<path d="M260.209 220.725C359.429 226.3 383.323 145.867 359.429 82.9537C359.429 82.9537 308.453 61.121 248.577 81.674C229.829 110.66 218.251 151.519 190.952 159.247C180.52 162.201 172.019 163.622 166.527 162.841C192.586 205.456 238.863 219.253 260.209 220.725Z" fill="url(#paint2_linear)"/>
<path d="M260.209 220.725C359.429 226.3 383.323 145.867 359.429 82.9537C359.429 82.9537 308.453 61.121 248.577 81.674C229.829 110.66 218.251 151.519 190.952 159.247C180.52 162.201 172.019 163.622 166.527 162.841C192.586 205.456 238.863 219.253 260.209 220.725Z" fill="url(#paint3_linear)"/>
<path d="M160.583 151.84L119.68 178.916C119.68 178.916 123.73 219.133 146.004 209.975C168.278 200.816 166.487 197.631 166.487 197.631L161.774 161.079C159.526 159.319 159 156.319 160.583 151.84Z" fill="#7BBFFD" fill-opacity="0.74"/>
<path d="M160.583 151.84L119.68 178.916C119.68 178.916 123.73 219.133 146.004 209.975C168.278 200.816 166.487 197.631 166.487 197.631L161.774 161.079C159.526 159.319 159 156.319 160.583 151.84Z" fill="url(#paint4_linear)"/>
<path d="M160.583 151.84L119.68 178.916C119.68 178.916 123.73 219.133 146.004 209.975C168.278 200.816 166.487 197.631 166.487 197.631L161.774 161.079C159.526 159.319 159 156.319 160.583 151.84Z" fill="url(#paint5_linear)"/>
<path d="M160.583 151.84C141.549 128.745 130.209 128.903 119.68 136.31C109.15 143.718 119.68 165.776 119.68 165.776L160.583 151.84Z" fill="#7BBFFD" fill-opacity="0.74"/>
<path d="M160.583 151.84C141.549 128.745 130.209 128.903 119.68 136.31C109.15 143.718 119.68 165.776 119.68 165.776L160.583 151.84Z" fill="url(#paint6_linear)"/>
<path d="M160.583 151.84C141.549 128.745 130.209 128.903 119.68 136.31C109.15 143.718 119.68 165.776 119.68 165.776L160.583 151.84Z" fill="url(#paint7_linear)"/>
<path d="M359.429 82.9537C359.429 82.9537 308.453 61.121 248.577 81.674C268.429 50.9822 296.321 33.6011 359.429 82.9537Z" fill="#7BBFFD" fill-opacity="0.74"/>
<path d="M359.429 82.9537C359.429 82.9537 308.453 61.121 248.577 81.674C268.429 50.9822 296.321 33.6011 359.429 82.9537Z" fill="url(#paint8_linear)"/>
<path d="M359.429 82.9537C359.429 82.9537 308.453 61.121 248.577 81.674C268.429 50.9822 296.321 33.6011 359.429 82.9537Z" fill="url(#paint9_linear)"/>
<path d="M160.583 151.84C160.583 151.84 163.256 144.222 166.487 140.642M160.583 151.84C141.549 128.745 130.209 128.903 119.68 136.31C109.15 143.718 119.68 165.776 119.68 165.776L160.583 151.84ZM160.583 151.84L119.68 178.916C119.68 178.916 123.73 219.133 146.004 209.975C168.278 200.816 166.487 197.631 166.487 197.631L161.774 161.079M160.583 151.84C162.414 155.704 164.403 159.368 166.527 162.841M160.583 151.84C159 156.319 159.526 159.319 161.774 161.079M160.583 151.84L161.774 161.079M160.583 151.84C164.116 145.568 166.283 141.678 167.539 139.384M359.429 82.9537C383.323 145.867 359.429 226.3 260.209 220.725C238.863 219.253 192.586 205.456 166.527 162.841M359.429 82.9537C359.429 82.9537 308.453 61.121 248.577 81.674M359.429 82.9537C296.321 33.6011 268.429 50.9822 248.577 81.674M166.487 140.642C166.837 140.22 167.188 139.801 167.539 139.384M166.487 140.642C166.487 140.642 171.467 132.212 167.539 139.384M248.577 81.674C229.829 110.66 218.251 151.519 190.952 159.247C180.52 162.201 172.019 163.622 166.527 162.841M248.577 81.674C222.092 90.7652 193.866 108.149 167.539 139.384M166.527 162.841C164.526 162.557 162.925 161.98 161.774 161.079" stroke="#6CE4D6"/>
<ellipse cx="293" cy="116" rx="7" ry="12" fill="#363636"/>
<ellipse cx="325" cy="116" rx="7" ry="12" fill="#363636"/>
<path d="M310 191.326C310 198.782 285.683 206 274.08 206C262.476 206 197.495 150.826 230.027 206C230.027 198.544 262.476 179 274.08 179C285.683 179 310 183.87 310 191.326Z" fill="#EB4949" fill-opacity="0.4"/>
<path d="M184.5 83C184.5 91.5604 179.874 73 168 73C156.126 73 142 58.5604 142 50C142 41.4396 148.126 40 160 40C171.874 40 184.5 74.4396 184.5 83Z" fill="#7BBFFD"/>
<path d="M184.5 83C184.5 91.5604 179.874 73 168 73C156.126 73 142 58.5604 142 50C142 41.4396 148.126 40 160 40C171.874 40 184.5 74.4396 184.5 83Z" fill="url(#paint10_linear)"/>
<path d="M184.5 83C184.5 91.5604 179.874 73 168 73C156.126 73 142 58.5604 142 50C142 41.4396 148.126 40 160 40C171.874 40 184.5 74.4396 184.5 83Z" fill="url(#paint11_linear)"/>
<path d="M163 94.9033C163 99.0647 167.5 98.5 154.847 90.0421C149.969 86.7815 136.5 86.1614 136.5 82C136.5 77.8386 145.027 74 150.894 74C156.761 74 163 90.7419 163 94.9033Z" fill="#7BBFFD"/>
</g>
<defs>
<linearGradient id="paint0_linear" x1="241.5" y1="52" x2="241.5" y2="221" gradientUnits="userSpaceOnUse">
<stop stop-color="white"/>
<stop offset="0.27692" stop-color="white" stop-opacity="0"/>
</linearGradient>
<linearGradient id="paint1_linear" x1="241.5" y1="52" x2="241.5" y2="221" gradientUnits="userSpaceOnUse">
<stop stop-color="#DFEFFE"/>
<stop offset="0.721494" stop-color="#0085FF"/>
</linearGradient>
<linearGradient id="paint2_linear" x1="241.5" y1="52" x2="241.5" y2="221" gradientUnits="userSpaceOnUse">
<stop stop-color="white"/>
<stop offset="0.27692" stop-color="white" stop-opacity="0"/>
</linearGradient>
<linearGradient id="paint3_linear" x1="241.5" y1="52" x2="241.5" y2="221" gradientUnits="userSpaceOnUse">
<stop stop-color="#DFEFFE"/>
<stop offset="0.721494" stop-color="#0085FF"/>
</linearGradient>
<linearGradient id="paint4_linear" x1="241.5" y1="52" x2="241.5" y2="221" gradientUnits="userSpaceOnUse">
<stop stop-color="white"/>
<stop offset="0.27692" stop-color="white" stop-opacity="0"/>
</linearGradient>
<linearGradient id="paint5_linear" x1="241.5" y1="52" x2="241.5" y2="221" gradientUnits="userSpaceOnUse">
<stop stop-color="#DFEFFE"/>
<stop offset="0.721494" stop-color="#0085FF"/>
</linearGradient>
<linearGradient id="paint6_linear" x1="241.5" y1="52" x2="241.5" y2="221" gradientUnits="userSpaceOnUse">
<stop stop-color="white"/>
<stop offset="0.27692" stop-color="white" stop-opacity="0"/>
</linearGradient>
<linearGradient id="paint7_linear" x1="241.5" y1="52" x2="241.5" y2="221" gradientUnits="userSpaceOnUse">
<stop stop-color="#DFEFFE"/>
<stop offset="0.721494" stop-color="#0085FF"/>
</linearGradient>
<linearGradient id="paint8_linear" x1="241.5" y1="52" x2="241.5" y2="221" gradientUnits="userSpaceOnUse">
<stop stop-color="white"/>
<stop offset="0.27692" stop-color="white" stop-opacity="0"/>
</linearGradient>
<linearGradient id="paint9_linear" x1="241.5" y1="52" x2="241.5" y2="221" gradientUnits="userSpaceOnUse">
<stop stop-color="#DFEFFE"/>
<stop offset="0.721494" stop-color="#0085FF"/>
</linearGradient>
<linearGradient id="paint10_linear" x1="163" y1="40" x2="163.25" y2="85.256" gradientUnits="userSpaceOnUse">
<stop stop-color="#0085FF"/>
<stop offset="0.920587" stop-color="white"/>
</linearGradient>
<linearGradient id="paint11_linear" x1="163.25" y1="40" x2="163.25" y2="85.256" gradientUnits="userSpaceOnUse">
<stop offset="0.282464" stop-color="white" stop-opacity="0"/>
<stop offset="1" stop-color="#0085FF"/>
</linearGradient>
<clipPath id="clip0">
<rect width="473" height="341" fill="white"/>
</clipPath>
</defs>
</svg>
