<svg width="448" height="404" viewBox="0 0 448 404" fill="none" xmlns="http://www.w3.org/2000/svg">
<rect x="66" y="278.763" width="339" height="30" fill="#49351C" fill-opacity="0.66"/>
<path d="M66 317.763H405L339 345.763L66 317.763Z" fill="#49351C" fill-opacity="0.5"/>
<path d="M66 360.763H332.5L273.5 382.763L66 360.763Z" fill="#C4C4C4" fill-opacity="0.3"/>
<path d="M341 351.763H66V325.763L341 351.763Z" fill="#49351C" fill-opacity="0.3"/>
<path d="M225.125 182.751C226.234 175.986 227 171.763 227 171.763C227 171.763 184 212.763 164 212.763C144 212.763 145 171.763 105 180.763C65 189.763 138 142.263 164 142.263C190 142.263 227 171.763 227 171.763H234.5C234.5 171.763 272.5 142.263 297.5 142.263C322.5 142.263 351.5 162.263 372 152.263C392.5 142.263 379.5 201.263 315 212.763C250.5 224.263 234.5 171.763 234.5 171.763C230.844 175.552 227.741 179.212 225.125 182.751C223.032 195.527 219.719 217.371 218.044 236.954C225.831 254.104 238.502 266.294 227 276.263C216.495 285.368 215.799 263.189 218.044 236.954C211.61 222.786 208.51 205.233 225.125 182.751Z" fill="#56FF47"/>
<path d="M225.125 182.751C226.234 175.986 227 171.763 227 171.763C227 171.763 184 212.763 164 212.763C144 212.763 145 171.763 105 180.763C65 189.763 138 142.263 164 142.263C190 142.263 227 171.763 227 171.763H234.5C234.5 171.763 272.5 142.263 297.5 142.263C322.5 142.263 351.5 162.263 372 152.263C392.5 142.263 379.5 201.263 315 212.763C250.5 224.263 234.5 171.763 234.5 171.763C230.844 175.552 227.741 179.212 225.125 182.751C223.032 195.527 219.719 217.371 218.044 236.954C225.831 254.104 238.502 266.294 227 276.263C216.495 285.368 215.799 263.189 218.044 236.954C211.61 222.786 208.51 205.233 225.125 182.751Z" fill="url(#paint0_linear)"/>
<path d="M227 171.763C227 171.763 204.5 295.763 227 276.263C249.5 256.763 179.5 228.763 234.5 171.763M227 171.763H234.5M227 171.763C227 171.763 190 142.263 164 142.263C138 142.263 65 189.763 105 180.763C145 171.763 144 212.763 164 212.763C184 212.763 227 171.763 227 171.763ZM234.5 171.763C234.5 171.763 272.5 142.263 297.5 142.263C322.5 142.263 351.5 162.263 372 152.263C392.5 142.263 379.5 201.263 315 212.763C250.5 224.263 234.5 171.763 234.5 171.763Z" stroke="#6CCE5C" stroke-opacity="0.2"/>
<path d="M185.5 236.263L214.512 267.763H156.488L185.5 236.263Z" fill="#AA7D5C"/>
<path d="M196 261.263L215.919 285.263H176.081L196 261.263Z" fill="#DBA076"/>
<path d="M256 261.263L271.588 283.763H240.412L256 261.263Z" fill="#AA7D5C"/>
<path d="M283.5 261.263L316.842 290.513H250.158L283.5 261.263Z" fill="#DBA076"/>
<path d="M227 155.263C227 155.263 172 112.763 145 116.763C118 120.763 133 67.2628 161 67.2628C170.289 67.2628 178.031 68.2532 185.109 70.1794C184.542 63.1603 185.602 56.9676 189 52.2628C208.5 25.2628 227 25.2628 227 25.2628C227 25.2628 299 11.2628 267 41.2628C236.879 69.5009 279.41 44.5795 269.498 72.8285C283.78 63.5275 273.411 67.2628 293.5 67.2628C320 67.2628 331.5 92.7628 331.5 92.7628C331.5 92.7628 342 126.263 318.5 128.263C295 130.263 227 155.263 227 155.263Z" fill="#EA2F89"/>
<path d="M227 155.263C227 155.263 172 112.763 145 116.763C118 120.763 133 67.2628 161 67.2628C170.289 67.2628 178.031 68.2532 185.109 70.1794C184.542 63.1603 185.602 56.9676 189 52.2628C208.5 25.2628 227 25.2628 227 25.2628C227 25.2628 299 11.2628 267 41.2628C236.879 69.5009 279.41 44.5795 269.498 72.8285C283.78 63.5275 273.411 67.2628 293.5 67.2628C320 67.2628 331.5 92.7628 331.5 92.7628C331.5 92.7628 342 126.263 318.5 128.263C295 130.263 227 155.263 227 155.263Z" fill="url(#paint1_linear)"/>
<path d="M227 155.263C227 155.263 172 112.763 145 116.763C118 120.763 133 67.2628 161 67.2628C189 67.2628 202.948 76.2628 227 92.7628C251.052 109.263 227 155.263 227 155.263ZM227 155.263C227 155.263 169.5 79.2628 189 52.2628C208.5 25.2628 227 25.2628 227 25.2628C227 25.2628 299 11.2628 267 41.2628C235 71.2628 285 41.2628 267 78.7628C249 116.263 227 155.263 227 155.263ZM227 155.263C227 155.263 199.5 111.763 246.5 86.2628C293.5 60.7628 267 67.2628 293.5 67.2628C320 67.2628 331.5 92.7628 331.5 92.7628C331.5 92.7628 342 126.263 318.5 128.263C295 130.263 227 155.263 227 155.263Z" stroke="#B14875" stroke-opacity="0.5"/>
<ellipse cx="281" cy="105" rx="7" ry="12" fill="#363636"/>
<ellipse cx="306" cy="105" rx="7" ry="12" fill="#363636"/>
<defs>
<linearGradient id="paint0_linear" x1="238.5" y1="142.263" x2="238.5" y2="276.263" gradientUnits="userSpaceOnUse">
<stop stop-color="white"/>
<stop offset="0.23555" stop-color="white" stop-opacity="0"/>
</linearGradient>
<linearGradient id="paint1_linear" x1="232.324" y1="22" x2="232.324" y2="155.263" gradientUnits="userSpaceOnUse">
<stop stop-color="white"/>
<stop offset="0.793675" stop-color="white" stop-opacity="0"/>
</linearGradient>
</defs>
</svg>
