<svg width="473" height="337" viewBox="0 0 473 337" fill="none" xmlns="http://www.w3.org/2000/svg">
<g clip-path="url(#clip0)">
<rect x="64" y="221.5" width="339" height="30" fill="#49351C" fill-opacity="0.66"/>
<path d="M64 260.5H403L337 288.5L64 260.5Z" fill="#49351C" fill-opacity="0.5"/>
<path d="M64 303.5H330.5L271.5 325.5L64 303.5Z" fill="#C4C4C4" fill-opacity="0.3"/>
<path d="M339 294.5H64V268.5L339 294.5Z" fill="#49351C" fill-opacity="0.3"/>
<path d="M239 43.9075C239 -2.18507 134.9 146.1 110.5 218.5H251.5H368.5C368.5 218.5 281.5 98 315.5 58.5C349.5 19 288.5 23.4075 306.5 43.9075C324.5 64.4075 239 90 239 43.9075Z" fill="url(#paint0_linear)" stroke="#FF835B"/>
<ellipse cx="226" cy="132.5" rx="7" ry="12" fill="#363636"/>
<ellipse cx="261" cy="132.5" rx="7" ry="12" fill="#363636"/>
<path d="M129.99 27V50.5836H157.5L132.765 60.8328L157.5 92.5L125.5 67.1672L102 75L118.235 60.8328L93 41.5L121.01 50.5836L129.99 27Z" fill="#E68650"/>
<path d="M127.793 41V54.6821H144L129.428 60.6282L144 79L125.147 64.3031L111.302 68.8473L120.867 60.6282L106 49.4122L122.502 54.6821L127.793 41Z" fill="#E6AA50"/>
<path d="M162.765 -4.5L159.99 14.0836L175 19.5L162.765 24.3328L175 44L155.5 30.6672L139 38.5L148.235 24.3328L129.5 4L151.01 14.0836L162.765 -4.5Z" fill="#E68650"/>
<path d="M276 27.8661C276 33.7724 267.905 46 262.301 46C256.697 46 252.661 29.5877 252.661 23.6813C249.11 15.7768 260.756 27.8661 266.36 27.8661C271.964 27.8661 276 21.9597 276 27.8661Z" fill="#FF835B"/>
<path d="M276 27.8661C276 33.7724 267.905 46 262.301 46C256.697 46 252.661 29.5877 252.661 23.6813C249.11 15.7768 260.756 27.8661 266.36 27.8661C271.964 27.8661 276 21.9597 276 27.8661Z" fill="#FF835B"/>
<path d="M276 27.8661C276 33.7724 267.905 46 262.301 46C256.697 46 252.661 29.5877 252.661 23.6813C249.11 15.7768 260.756 27.8661 266.36 27.8661C271.964 27.8661 276 21.9597 276 27.8661Z" fill="#FF835B"/>
<path d="M276 27.8661C276 33.7724 267.905 46 262.301 46C256.697 46 252.661 29.5877 252.661 23.6813C249.11 15.7768 260.756 27.8661 266.36 27.8661C271.964 27.8661 276 21.9597 276 27.8661Z" fill="#FF835B"/>
<path d="M273 31.6689C273 35.6852 266.929 44 262.726 44C258.523 44 255.496 32.8396 255.496 28.8233C252.832 23.4482 261.567 31.6689 265.77 31.6689C269.973 31.6689 273 27.6526 273 31.6689Z" fill="#FF835B"/>
<path d="M273 31.6689C273 35.6852 266.929 44 262.726 44C258.523 44 255.496 32.8396 255.496 28.8233C252.832 23.4482 261.567 31.6689 265.77 31.6689C269.973 31.6689 273 27.6526 273 31.6689Z" fill="#FF835B"/>
<path d="M273 31.6689C273 35.6852 266.929 44 262.726 44C258.523 44 255.496 32.8396 255.496 28.8233C252.832 23.4482 261.567 31.6689 265.77 31.6689C269.973 31.6689 273 27.6526 273 31.6689Z" fill="#FF835B"/>
<path d="M273 31.6689C273 35.6852 266.929 44 262.726 44C258.523 44 255.496 32.8396 255.496 28.8233C252.832 23.4482 261.567 31.6689 265.77 31.6689C269.973 31.6689 273 27.6526 273 31.6689Z" fill="#FFAA5B"/>
</g>
<defs>
<linearGradient id="paint0_linear" x1="260.75" y1="15" x2="259" y2="244.5" gradientUnits="userSpaceOnUse">
<stop offset="0.786458" stop-color="#FF835B"/>
<stop offset="1" stop-color="#FF835B" stop-opacity="0"/>
</linearGradient>
<clipPath id="clip0">
<rect width="475" height="337" fill="white" transform="translate(-2)"/>
</clipPath>
</defs>
</svg>
