<svg width="475" height="341" viewBox="0 0 475 341" fill="none" xmlns="http://www.w3.org/2000/svg">
<rect x="66" y="221.5" width="339" height="30" fill="#49351C" fill-opacity="0.66"/>
<path d="M66 260.5H405L339 288.5L66 260.5Z" fill="#49351C" fill-opacity="0.5"/>
<path d="M66 303.5H332.5L273.5 325.5L66 303.5Z" fill="#C4C4C4" fill-opacity="0.3"/>
<path d="M341 294.5H66V268.5L341 294.5Z" fill="#49351C" fill-opacity="0.3"/>
<path d="M227 128.238V114.5C227 114.5 184 155.5 164 155.5C144 155.5 105 123.5 105 123.5C105 123.5 138 85 164 85C190 85 227 114.5 227 114.5H234.5C234.5 114.5 272.5 85 297.5 85C322.5 85 372 95 372 95C372 95 342.5 147.5 315 155.5C287.5 163.5 234.5 114.5 234.5 114.5C231.507 119.383 229.031 123.943 227 128.238V219C225.772 183.388 209.069 166.154 227 128.238Z" fill="#56FF47"/>
<path d="M227 128.238V114.5C227 114.5 184 155.5 164 155.5C144 155.5 105 123.5 105 123.5C105 123.5 138 85 164 85C190 85 227 114.5 227 114.5H234.5C234.5 114.5 272.5 85 297.5 85C322.5 85 372 95 372 95C372 95 342.5 147.5 315 155.5C287.5 163.5 234.5 114.5 234.5 114.5C231.507 119.383 229.031 123.943 227 128.238V219C225.772 183.388 209.069 166.154 227 128.238Z" fill="url(#paint0_linear)"/>
<path d="M227 114.5V219C225.633 179.354 205.086 162.485 234.5 114.5M227 114.5H234.5M227 114.5C227 114.5 190 85 164 85C138 85 105 123.5 105 123.5C105 123.5 144 155.5 164 155.5C184 155.5 227 114.5 227 114.5ZM234.5 114.5C234.5 114.5 272.5 85 297.5 85C322.5 85 372 95 372 95C372 95 342.5 147.5 315 155.5C287.5 163.5 234.5 114.5 234.5 114.5Z" stroke="#6CCE5C" stroke-opacity="0.2"/>
<ellipse cx="289" cy="107" rx="7" ry="12" fill="#363636"/>
<ellipse cx="314" cy="107" rx="7" ry="12" fill="#363636"/>
<path d="M201 191L216.588 213.5H185.412L201 191Z" fill="#DBA076"/>
<path d="M185 204L200.588 226.5H169.412L185 204Z" fill="#DBA076"/>
<path d="M256 204L271.588 226.5H240.412L256 204Z" fill="#DBA076"/>
<defs>
<linearGradient id="paint0_linear" x1="238.5" y1="85" x2="238.5" y2="219" gradientUnits="userSpaceOnUse">
<stop stop-color="white"/>
<stop offset="0.23555" stop-color="white" stop-opacity="0"/>
</linearGradient>
</defs>
</svg>
