<svg width="473" height="341" viewBox="0 0 473 341" fill="none" xmlns="http://www.w3.org/2000/svg">
<rect x="66" y="221.5" width="339" height="30" fill="#49351C" fill-opacity="0.66"/>
<path d="M66 260.5H405L339 288.5L66 260.5Z" fill="#49351C" fill-opacity="0.5"/>
<path d="M66 303.5H332.5L273.5 325.5L66 303.5Z" fill="#C4C4C4" fill-opacity="0.3"/>
<path d="M341 294.5H66V268.5L341 294.5Z" fill="#49351C" fill-opacity="0.3"/>
<path fill-rule="evenodd" clip-rule="evenodd" d="M158.304 155.032C153.317 149.667 148.52 144.507 143.994 139.802C213.386 119.821 352 44.0001 352 44.0001C352 44.0001 281.5 239.5 229.5 217C206.767 207.164 180.626 179.044 158.304 155.032ZM106.5 130.5C106.718 120.373 109.336 116.27 113.789 116.439C109.8 120.935 107.264 125.624 106.5 130.5Z" fill="#7BBFFD" fill-opacity="0.74"/>
<path fill-rule="evenodd" clip-rule="evenodd" d="M158.304 155.032C153.317 149.667 148.52 144.507 143.994 139.802C213.386 119.821 352 44.0001 352 44.0001C352 44.0001 281.5 239.5 229.5 217C206.767 207.164 180.626 179.044 158.304 155.032ZM106.5 130.5C106.718 120.373 109.336 116.27 113.789 116.439C109.8 120.935 107.264 125.624 106.5 130.5Z" fill="url(#paint0_linear)"/>
<path fill-rule="evenodd" clip-rule="evenodd" d="M158.304 155.032C153.317 149.667 148.52 144.507 143.994 139.802C213.386 119.821 352 44.0001 352 44.0001C352 44.0001 281.5 239.5 229.5 217C206.767 207.164 180.626 179.044 158.304 155.032ZM106.5 130.5C106.718 120.373 109.336 116.27 113.789 116.439C109.8 120.935 107.264 125.624 106.5 130.5Z" fill="url(#paint1_linear)"/>
<path d="M352 44.0001C352 44.0001 155.07 69.9156 113.789 116.439C120.415 116.69 131.104 126.401 143.994 139.802C213.386 119.821 352 44.0001 352 44.0001Z" fill="#7BBFFD" fill-opacity="0.74"/>
<path d="M352 44.0001C352 44.0001 155.07 69.9156 113.789 116.439C120.415 116.69 131.104 126.401 143.994 139.802C213.386 119.821 352 44.0001 352 44.0001Z" fill="url(#paint2_linear)"/>
<path d="M352 44.0001C352 44.0001 155.07 69.9156 113.789 116.439C120.415 116.69 131.104 126.401 143.994 139.802C213.386 119.821 352 44.0001 352 44.0001Z" fill="url(#paint3_linear)"/>
<path d="M106.5 130.5C100.798 146.909 117.258 147.5 143.994 139.802M106.5 130.5C106.718 120.373 109.336 116.27 113.789 116.439M106.5 130.5C107.264 125.624 109.8 120.935 113.789 116.439M352 44.0001C352 44.0001 281.5 239.5 229.5 217C206.767 207.164 180.626 179.044 158.304 155.032C153.317 149.667 148.52 144.507 143.994 139.802M352 44.0001C352 44.0001 155.07 69.9156 113.789 116.439M352 44.0001C352 44.0001 213.386 119.821 143.994 139.802M143.994 139.802C131.104 126.401 120.415 116.69 113.789 116.439" stroke="#6CE4D6"/>
<ellipse cx="228" cy="132.5" rx="7" ry="12" fill="#363636"/>
<ellipse cx="263" cy="132.5" rx="7" ry="12" fill="#363636"/>
<path d="M321.659 98.5C321.659 104.851 303.72 111 295.159 111C286.599 111 238.659 64 262.659 111C262.659 104.649 286.599 88 295.159 88C303.72 88 321.659 92.1487 321.659 98.5Z" fill="#EB4949" fill-opacity="0.4"/>
<path d="M114.5 172C114.5 176.409 114.208 182.098 112.835 186.67C112.148 188.956 111.203 190.922 109.923 192.31C108.656 193.684 107.056 194.5 105 194.5C94.039 194.5 88.7405 192.212 86.1385 188.999C83.5197 185.766 83.5 181.461 83.5 177C83.5 175.978 83.8226 174.493 84.42 172.686C85.0136 170.892 85.8645 168.82 86.8899 166.641C88.9412 162.282 91.6761 157.523 94.4059 153.728C95.7712 151.831 97.1273 150.185 98.3884 148.954C99.6636 147.709 100.788 146.941 101.687 146.711C102.122 146.599 102.478 146.621 102.772 146.747C103.066 146.874 103.357 147.132 103.619 147.597C104.154 148.552 104.5 150.268 104.5 153C104.5 158.526 105.126 161.993 106.105 164.21C107.1 166.463 108.458 167.415 109.831 167.907C110.426 168.12 111.02 168.245 111.549 168.356C111.611 168.369 111.672 168.382 111.732 168.395C112.323 168.521 112.808 168.638 113.211 168.843C113.593 169.037 113.9 169.311 114.12 169.767C114.348 170.238 114.5 170.936 114.5 172Z" fill="#7BBFFD" stroke="#6CE4D6"/>
<defs>
<linearGradient id="paint0_linear" x1="228.687" y1="44.0001" x2="228.687" y2="218.803" gradientUnits="userSpaceOnUse">
<stop stop-color="white" stop-opacity="0"/>
<stop offset="0.760857" stop-color="#71E5FF"/>
</linearGradient>
<linearGradient id="paint1_linear" x1="228.687" y1="44.0001" x2="228.687" y2="218.803" gradientUnits="userSpaceOnUse">
<stop stop-color="#0085FF"/>
<stop offset="1" stop-color="white" stop-opacity="0"/>
</linearGradient>
<linearGradient id="paint2_linear" x1="228.687" y1="44.0001" x2="228.687" y2="218.803" gradientUnits="userSpaceOnUse">
<stop stop-color="white" stop-opacity="0"/>
<stop offset="0.760857" stop-color="#71E5FF"/>
</linearGradient>
<linearGradient id="paint3_linear" x1="228.687" y1="44.0001" x2="228.687" y2="218.803" gradientUnits="userSpaceOnUse">
<stop stop-color="#0085FF"/>
<stop offset="1" stop-color="white" stop-opacity="0"/>
</linearGradient>
</defs>
</svg>
