<svg width="475" height="341" viewBox="0 0 475 341" fill="none" xmlns="http://www.w3.org/2000/svg">
<rect x="66" y="221.5" width="339" height="30" fill="#49351C" fill-opacity="0.66"/>
<path d="M66 260.5H405L339 288.5L66 260.5Z" fill="#49351C" fill-opacity="0.5"/>
<path d="M66 303.5H332.5L273.5 325.5L66 303.5Z" fill="#C4C4C4" fill-opacity="0.3"/>
<path d="M341 294.5H66V268.5L341 294.5Z" fill="#49351C" fill-opacity="0.3"/>
<path d="M225.125 125.488C226.234 118.723 227 114.5 227 114.5C227 114.5 184 155.5 164 155.5C144 155.5 145 114.5 105 123.5C65 132.5 138 85 164 85C190 85 227 114.5 227 114.5H234.5C234.5 114.5 272.5 85 297.5 85C322.5 85 351.5 105 372 95C392.5 85 379.5 144 315 155.5C250.5 167 234.5 114.5 234.5 114.5C230.844 118.289 227.741 121.95 225.125 125.488C223.032 138.265 219.719 160.108 218.044 179.692C225.831 196.842 238.502 209.031 227 219C216.495 228.105 215.799 205.926 218.044 179.692C211.61 165.524 208.51 147.97 225.125 125.488Z" fill="#56FF47"/>
<path d="M225.125 125.488C226.234 118.723 227 114.5 227 114.5C227 114.5 184 155.5 164 155.5C144 155.5 145 114.5 105 123.5C65 132.5 138 85 164 85C190 85 227 114.5 227 114.5H234.5C234.5 114.5 272.5 85 297.5 85C322.5 85 351.5 105 372 95C392.5 85 379.5 144 315 155.5C250.5 167 234.5 114.5 234.5 114.5C230.844 118.289 227.741 121.95 225.125 125.488C223.032 138.265 219.719 160.108 218.044 179.692C225.831 196.842 238.502 209.031 227 219C216.495 228.105 215.799 205.926 218.044 179.692C211.61 165.524 208.51 147.97 225.125 125.488Z" fill="url(#paint0_linear)"/>
<path d="M227 114.5C227 114.5 204.5 238.5 227 219C249.5 199.5 179.5 171.5 234.5 114.5M227 114.5H234.5M227 114.5C227 114.5 190 85 164 85C138 85 65 132.5 105 123.5C145 114.5 144 155.5 164 155.5C184 155.5 227 114.5 227 114.5ZM234.5 114.5C234.5 114.5 272.5 85 297.5 85C322.5 85 351.5 105 372 95C392.5 85 379.5 144 315 155.5C250.5 167 234.5 114.5 234.5 114.5Z" stroke="#6CCE5C" stroke-opacity="0.2"/>
<ellipse cx="290" cy="108" rx="7" ry="12" fill="#363636"/>
<ellipse cx="315" cy="108" rx="7" ry="12" fill="#363636"/>
<path d="M185.5 179L214.512 210.5H156.488L185.5 179Z" fill="#AA7D5C"/>
<path d="M196 204L215.919 228H176.081L196 204Z" fill="#DBA076"/>
<path d="M256 204L271.588 226.5H240.412L256 204Z" fill="#AA7D5C"/>
<path d="M283.5 204L316.842 233.25H250.158L283.5 204Z" fill="#DBA076"/>
<path d="M232.605 100.826C179.105 112.826 251.605 -25.1738 270.71 37.8262C289.815 100.826 176.895 76.3262 194.5 37.8262C212.105 -0.673752 286.105 88.8262 232.605 100.826Z" fill="#56FF47"/>
<path d="M232.605 100.826C179.105 112.826 251.605 -25.1738 270.71 37.8262C289.815 100.826 176.895 76.3262 194.5 37.8262C212.105 -0.673752 286.105 88.8262 232.605 100.826Z" fill="url(#paint1_linear)"/>
<path d="M251.197 80.4895C251.245 79.0471 251.172 77.5644 250.989 76.0531C245.401 77.1284 239.245 77.1802 233.103 76.3846C227.236 75.6245 221.351 74.0876 215.945 71.9083C214.407 77.4465 213.615 82.6888 213.802 87.1648C214.013 92.2277 215.471 96.2177 218.412 98.5914C221.347 100.96 225.886 101.821 232.496 100.338C239.107 98.8555 243.697 96.1876 246.673 92.7666C249.647 89.348 251.045 85.1347 251.197 80.4895ZM201.994 62.5489C205.659 65.705 210.236 68.416 215.29 70.5561C217.277 63.7722 220.32 56.6338 223.993 49.9602C225.916 46.4646 228.016 43.0898 230.232 39.9532C225.378 35.4947 220.184 32.0363 215.231 30.2094C211.01 28.6521 207.007 28.2954 203.546 29.4612C200.098 30.6225 197.11 33.3206 194.955 38.0342C192.805 42.7364 192.653 47.2013 193.98 51.3104C195.309 55.4307 198.136 59.2269 201.994 62.5489ZM236.526 33.5694C234.828 35.4912 233.164 37.5894 231.556 39.8193C234.807 42.8823 237.884 46.371 240.62 50.0926C246.316 57.8408 250.582 66.6666 251.834 74.8585C256.512 73.8348 260.715 72.0546 264.079 69.4245C267.804 66.5118 270.514 62.5489 271.712 57.3803C272.912 52.2039 272.602 45.7878 270.232 37.9714C267.859 30.1461 264.686 25.5497 261.131 23.3635C257.606 21.1952 253.599 21.3365 249.378 23.2354C245.145 25.1399 240.743 28.7975 236.526 33.5694ZM233.232 75.3929C239.331 76.1829 245.39 76.1197 250.853 75.0608C249.645 67.0779 245.474 58.384 239.814 50.6849C237.134 47.0393 234.132 43.6321 230.97 40.6414C228.807 43.7127 226.754 47.0169 224.869 50.4423C221.197 57.1157 218.177 64.2235 216.22 70.941C221.564 73.1056 227.401 74.6375 233.232 75.3929Z" stroke="#38BA23" stroke-opacity="0.4"/>
<defs>
<linearGradient id="paint0_linear" x1="238.5" y1="85" x2="238.5" y2="219" gradientUnits="userSpaceOnUse">
<stop stop-color="white"/>
<stop offset="0.23555" stop-color="white" stop-opacity="0"/>
</linearGradient>
<linearGradient id="paint1_linear" x1="232.762" y1="101.57" x2="232.762" y2="21.2742" gradientUnits="userSpaceOnUse">
<stop offset="0.552228" stop-color="white" stop-opacity="0"/>
<stop offset="1" stop-color="white"/>
</linearGradient>
</defs>
</svg>
