<svg width="473" height="405" viewBox="0 0 473 405" fill="none" xmlns="http://www.w3.org/2000/svg">
<g clip-path="url(#clip0)">
<rect x="66" y="260.5" width="339" height="30" fill="#49351C" fill-opacity="0.66"/>
<path d="M66 299.5H405L339 327.5L66 299.5Z" fill="#49351C" fill-opacity="0.5"/>
<path d="M66 342.5H332.5L273.5 364.5L66 342.5Z" fill="#C4C4C4" fill-opacity="0.3"/>
<path d="M341 333.5H66V307.5L341 333.5Z" fill="#49351C" fill-opacity="0.3"/>
<path fill-rule="evenodd" clip-rule="evenodd" d="M143.72 181.448C147.176 175.456 149.296 171.739 150.525 169.547C154.367 162.694 149.495 170.749 149.495 170.749C146.334 174.17 143.72 181.448 143.72 181.448Z" fill="#7BBFFD" fill-opacity="0.74"/>
<path fill-rule="evenodd" clip-rule="evenodd" d="M143.72 181.448C147.176 175.456 149.296 171.739 150.525 169.547C154.367 162.694 149.495 170.749 149.495 170.749C146.334 174.17 143.72 181.448 143.72 181.448Z" fill="url(#paint0_linear)"/>
<path fill-rule="evenodd" clip-rule="evenodd" d="M143.72 181.448C147.176 175.456 149.296 171.739 150.525 169.547C154.367 162.694 149.495 170.749 149.495 170.749C146.334 174.17 143.72 181.448 143.72 181.448Z" fill="url(#paint1_linear)"/>
<path d="M241.171 247.265C338.225 252.591 420.356 191.073 396.984 130.962C396.984 130.962 280.95 61.6408 222.381 81.2783C150.525 134.306 159.651 163.364 132.948 170.749C127.555 172.24 133.994 178.287 140.473 183.547C141.574 184.441 142.675 185.312 143.72 186.134C148.165 189.631 151.585 192.244 149.534 191.959C175.024 232.676 220.291 245.858 241.171 247.265Z" fill="#7BBFFD" fill-opacity="0.74"/>
<path d="M241.171 247.265C338.225 252.591 420.356 191.073 396.984 130.962C396.984 130.962 280.95 61.6408 222.381 81.2783C150.525 134.306 159.651 163.364 132.948 170.749C127.555 172.24 133.994 178.287 140.473 183.547C141.574 184.441 142.675 185.312 143.72 186.134C148.165 189.631 151.585 192.244 149.534 191.959C175.024 232.676 220.291 245.858 241.171 247.265Z" fill="url(#paint2_linear)"/>
<path d="M241.171 247.265C338.225 252.591 420.356 191.073 396.984 130.962C396.984 130.962 280.95 61.6408 222.381 81.2783C150.525 134.306 159.651 163.364 132.948 170.749C127.555 172.24 133.994 178.287 140.473 183.547C141.574 184.441 142.675 185.312 143.72 186.134C148.165 189.631 151.585 192.244 149.534 191.959C175.024 232.676 220.291 245.858 241.171 247.265Z" fill="url(#paint3_linear)"/>
<path d="M143.72 181.448C125.102 159.382 74.7072 130.095 64.4076 137.172C54.1079 144.25 103.71 194.763 103.71 194.763L143.72 181.448Z" fill="#7BBFFD" fill-opacity="0.74"/>
<path d="M143.72 181.448C125.102 159.382 74.7072 130.095 64.4076 137.172C54.1079 144.25 103.71 194.763 103.71 194.763L143.72 181.448Z" fill="url(#paint4_linear)"/>
<path d="M143.72 181.448C125.102 159.382 74.7072 130.095 64.4076 137.172C54.1079 144.25 103.71 194.763 103.71 194.763L143.72 181.448Z" fill="url(#paint5_linear)"/>
<path d="M396.984 130.962C396.984 130.962 280.95 61.6408 222.381 81.2783C241.8 51.9536 335.253 83.8077 396.984 130.962Z" fill="#7BBFFD" fill-opacity="0.74"/>
<path d="M396.984 130.962C396.984 130.962 280.95 61.6408 222.381 81.2783C241.8 51.9536 335.253 83.8077 396.984 130.962Z" fill="url(#paint6_linear)"/>
<path d="M396.984 130.962C396.984 130.962 280.95 61.6408 222.381 81.2783C241.8 51.9536 335.253 83.8077 396.984 130.962Z" fill="url(#paint7_linear)"/>
<path d="M140.473 183.547C140.473 183.547 127.302 184.598 103.71 207.318C80.1179 230.039 84.2629 243.048 103.71 247.265C123.157 251.482 150.525 285.455 143.72 221.252C136.916 157.05 143.72 186.134 143.72 186.134C142.675 185.312 141.574 184.441 140.473 183.547Z" fill="#7BBFFD" fill-opacity="0.74"/>
<path d="M140.473 183.547C140.473 183.547 127.302 184.598 103.71 207.318C80.1179 230.039 84.2629 243.048 103.71 247.265C123.157 251.482 150.525 285.455 143.72 221.252C136.916 157.05 143.72 186.134 143.72 186.134C142.675 185.312 141.574 184.441 140.473 183.547Z" fill="url(#paint8_linear)"/>
<path d="M140.473 183.547C140.473 183.547 127.302 184.598 103.71 207.318C80.1179 230.039 84.2629 243.048 103.71 247.265C123.157 251.482 150.525 285.455 143.72 221.252C136.916 157.05 143.72 186.134 143.72 186.134C142.675 185.312 141.574 184.441 140.473 183.547Z" fill="url(#paint9_linear)"/>
<path d="M143.72 181.448C143.72 181.448 146.334 174.17 149.495 170.749M143.72 181.448C125.102 159.382 74.7072 130.095 64.4076 137.172C54.1079 144.25 103.71 194.763 103.71 194.763L143.72 181.448ZM143.72 181.448C145.511 185.14 147.457 188.641 149.534 191.959M143.72 181.448C147.176 175.456 149.296 171.739 150.525 169.547M143.72 181.448V186.134M143.72 181.448L140.473 183.547M396.984 130.962C420.356 191.073 338.225 252.591 241.171 247.265C220.291 245.858 175.024 232.676 149.534 191.959M396.984 130.962C396.984 130.962 280.95 61.6408 222.381 81.2783M396.984 130.962C335.253 83.8077 241.8 51.9536 222.381 81.2783M149.495 170.749C149.838 170.346 150.181 169.946 150.525 169.547M149.495 170.749C149.495 170.749 154.367 162.694 150.525 169.547M222.381 81.2783C150.525 134.306 159.651 163.364 132.948 170.749C127.555 172.24 133.994 178.287 140.473 183.547M222.381 81.2783C196.475 89.9645 176.276 139.704 150.525 169.547M149.534 191.959C151.585 192.244 148.165 189.631 143.72 186.134M140.473 183.547C140.473 183.547 127.302 184.598 103.71 207.318C80.1179 230.039 84.2629 243.048 103.71 247.265C123.157 251.482 150.525 285.455 143.72 221.252C136.916 157.05 143.72 186.134 143.72 186.134M140.473 183.547C141.574 184.441 142.675 185.312 143.72 186.134" stroke="#6CE4D6"/>
<ellipse cx="309" cy="144" rx="7" ry="12" fill="#363636"/>
<ellipse cx="341" cy="144" rx="7" ry="12" fill="#363636"/>
<path fill-rule="evenodd" clip-rule="evenodd" d="M314 74C316.761 74 319 69.5228 319 64C319 58.4772 316.761 54 314 54C311.239 54 309 58.4772 309 64C309 69.5228 311.239 74 314 74ZM336 74C338.761 74 341 69.5228 341 64C341 58.4772 338.761 54 336 54C333.239 54 331 58.4772 331 64C331 69.5228 333.239 74 336 74Z" fill="black"/>
<path d="M369 65.3135C369 80.5013 320 95.3135 272.864 95.3135C253.438 95.3135 144.649 -5.57778 199.112 106.814C199.112 91.6257 253.438 30.3135 272.864 30.3135C292.29 30.3135 369 50.1257 369 65.3135Z" fill="#EB4949" fill-opacity="0.9"/>
<path d="M151 113C151 121.56 146.374 103 134.5 103C122.626 103 108.5 88.5604 108.5 80C108.5 71.4396 114.626 70 126.5 70C138.374 70 151 104.44 151 113Z" fill="#7BBFFD"/>
<path d="M151 113C151 121.56 146.374 103 134.5 103C122.626 103 108.5 88.5604 108.5 80C108.5 71.4396 114.626 70 126.5 70C138.374 70 151 104.44 151 113Z" fill="url(#paint10_linear)"/>
<path d="M151 113C151 121.56 146.374 103 134.5 103C122.626 103 108.5 88.5604 108.5 80C108.5 71.4396 114.626 70 126.5 70C138.374 70 151 104.44 151 113Z" fill="url(#paint11_linear)"/>
<path d="M129.5 124.903C129.5 129.065 134 128.5 121.347 120.042C116.469 116.782 103 116.161 103 112C103 107.839 111.527 104 117.394 104C123.261 104 129.5 120.742 129.5 124.903Z" fill="#7BBFFD"/>
<path d="M374 90.9033C374 95.0647 376.939 86.0421 384.482 86.0421C392.026 86.0421 401 79.0227 401 74.8612C401 70.6998 397.108 70 389.565 70C382.021 70 374 86.7419 374 90.9033Z" fill="#7BBFFD"/>
<path d="M374 90.9033C374 95.0647 376.939 86.0421 384.482 86.0421C392.026 86.0421 401 79.0227 401 74.8612C401 70.6998 397.108 70 389.565 70C382.021 70 374 86.7419 374 90.9033Z" fill="url(#paint12_linear)"/>
<path d="M374 90.9033C374 95.0647 376.939 86.0421 384.482 86.0421C392.026 86.0421 401 79.0227 401 74.8612C401 70.6998 397.108 70 389.565 70C382.021 70 374 86.7419 374 90.9033Z" fill="url(#paint13_linear)"/>
<path d="M387.513 96.8147C387.513 98.7686 384.544 98.5034 392.893 94.5322C396.112 93.0013 405 92.7101 405 90.7562C405 88.8023 399.373 87 395.502 87C391.63 87 387.513 94.8608 387.513 96.8147Z" fill="#7BBFFD"/>
</g>
<defs>
<linearGradient id="paint0_linear" x1="222.87" y1="86.0556" x2="222.87" y2="247.528" gradientUnits="userSpaceOnUse">
<stop stop-color="white"/>
<stop offset="0.27692" stop-color="white" stop-opacity="0"/>
</linearGradient>
<linearGradient id="paint1_linear" x1="222.87" y1="86.0556" x2="222.87" y2="247.528" gradientUnits="userSpaceOnUse">
<stop stop-color="#DFEFFE"/>
<stop offset="0.721494" stop-color="#0085FF"/>
</linearGradient>
<linearGradient id="paint2_linear" x1="222.87" y1="86.0556" x2="222.87" y2="247.528" gradientUnits="userSpaceOnUse">
<stop stop-color="white"/>
<stop offset="0.27692" stop-color="white" stop-opacity="0"/>
</linearGradient>
<linearGradient id="paint3_linear" x1="222.87" y1="86.0556" x2="222.87" y2="247.528" gradientUnits="userSpaceOnUse">
<stop stop-color="#DFEFFE"/>
<stop offset="0.721494" stop-color="#0085FF"/>
</linearGradient>
<linearGradient id="paint4_linear" x1="222.87" y1="86.0556" x2="222.87" y2="247.528" gradientUnits="userSpaceOnUse">
<stop stop-color="white"/>
<stop offset="0.27692" stop-color="white" stop-opacity="0"/>
</linearGradient>
<linearGradient id="paint5_linear" x1="222.87" y1="86.0556" x2="222.87" y2="247.528" gradientUnits="userSpaceOnUse">
<stop stop-color="#DFEFFE"/>
<stop offset="0.721494" stop-color="#0085FF"/>
</linearGradient>
<linearGradient id="paint6_linear" x1="222.87" y1="86.0556" x2="222.87" y2="247.528" gradientUnits="userSpaceOnUse">
<stop stop-color="white"/>
<stop offset="0.27692" stop-color="white" stop-opacity="0"/>
</linearGradient>
<linearGradient id="paint7_linear" x1="222.87" y1="86.0556" x2="222.87" y2="247.528" gradientUnits="userSpaceOnUse">
<stop stop-color="#DFEFFE"/>
<stop offset="0.721494" stop-color="#0085FF"/>
</linearGradient>
<linearGradient id="paint8_linear" x1="222.87" y1="86.0556" x2="222.87" y2="247.528" gradientUnits="userSpaceOnUse">
<stop stop-color="white"/>
<stop offset="0.27692" stop-color="white" stop-opacity="0"/>
</linearGradient>
<linearGradient id="paint9_linear" x1="222.87" y1="86.0556" x2="222.87" y2="247.528" gradientUnits="userSpaceOnUse">
<stop stop-color="#DFEFFE"/>
<stop offset="0.721494" stop-color="#0085FF"/>
</linearGradient>
<linearGradient id="paint10_linear" x1="129.5" y1="70" x2="129.75" y2="115.256" gradientUnits="userSpaceOnUse">
<stop stop-color="#0085FF"/>
<stop offset="0.920587" stop-color="white"/>
</linearGradient>
<linearGradient id="paint11_linear" x1="129.75" y1="70" x2="129.75" y2="115.256" gradientUnits="userSpaceOnUse">
<stop offset="0.282464" stop-color="white" stop-opacity="0"/>
<stop offset="1" stop-color="#0085FF"/>
</linearGradient>
<linearGradient id="paint12_linear" x1="387.659" y1="70" x2="387.566" y2="92.0003" gradientUnits="userSpaceOnUse">
<stop stop-color="#0085FF"/>
<stop offset="0.920587" stop-color="white"/>
</linearGradient>
<linearGradient id="paint13_linear" x1="387.5" y1="70" x2="387.5" y2="92" gradientUnits="userSpaceOnUse">
<stop offset="0.282464" stop-color="white" stop-opacity="0"/>
<stop offset="1" stop-color="#0085FF"/>
</linearGradient>
<clipPath id="clip0">
<rect width="473" height="405" fill="white"/>
</clipPath>
</defs>
</svg>
