<svg width="475" height="463" viewBox="0 0 475 463" fill="none" xmlns="http://www.w3.org/2000/svg">
<g clip-path="url(#clip0)">
<rect x="66" y="340" width="339" height="30" fill="#49351C" fill-opacity="0.66"/>
<path d="M66 376H405L339 404L66 376Z" fill="#49351C" fill-opacity="0.5"/>
<path d="M66 415H332.5L273.5 437L66 415Z" fill="#C4C4C4" fill-opacity="0.3"/>
<path d="M341 409H66V383L341 409Z" fill="#49351C" fill-opacity="0.3"/>
<path d="M121 236.461C121 211.682 206.616 135.201 246.789 92.0447C215.614 94.8065 194.262 89.6787 242.5 68.3681C278.525 52.453 270.72 66.3363 246.789 92.0447C277.979 89.2814 319.002 78.6207 310 68.3681C292 47.8681 353 43.4606 319 82.9606C285 122.461 372 242.961 372 242.961C372 242.961 297 257.421 319 298.961C341 340.5 216.129 286.549 242.5 314.961C261.472 335.401 188.399 306.117 147.24 290.417C147.32 292.9 146.948 295.706 146 298.961C138 326.421 124.597 288.287 121 282C119.991 280.236 131.188 284.293 147.24 290.417C146.641 271.948 121 271.313 121 236.461Z" fill="url(#paint0_linear)"/>
<path d="M121 236.461C121 196.921 339 25.7362 242.5 68.3681C146 111 328 88.8681 310 68.3681C292 47.8681 353 43.4606 319 82.9606C285 122.461 372 242.961 372 242.961C372 242.961 297 257.421 319 298.961C341 340.5 216.129 286.549 242.5 314.961C268.871 343.373 117.403 275.714 121 282C124.597 288.287 138 326.421 146 298.961C154 271.5 121 276 121 236.461Z" stroke="#FF835B"/>
<ellipse cx="228" cy="184.5" rx="7" ry="12" fill="#363636"/>
<ellipse cx="263" cy="184.5" rx="7" ry="12" fill="#363636"/>
<path d="M131.99 79V102.584H159.5L134.765 112.833L159.5 144.5L127.5 119.167L104 127L120.235 112.833L95 93.5L123.01 102.584L131.99 79Z" fill="#FF6F1E"/>
<path d="M129.646 93V106.322H145L131.195 112.112L145 130L127.14 115.69L114.023 120.115L123.084 112.112L109 101.191L124.633 106.322L129.646 93Z" fill="#FFE55B"/>
<path d="M164.765 47.5L161.99 66.0836L177 71.5L164.765 76.3328L177 96L157.5 82.6672L141 90.5L150.235 76.3328L131.5 56L153.01 66.0836L164.765 47.5Z" fill="#FF630B"/>
<path d="M100.821 172.366C104.461 148 83.0865 202.5 77.4823 202.5C71.8781 202.5 77.4823 188 67.8425 180.181C58.2026 172.363 75.7169 157 81.321 157C86.9252 157 97.1809 196.732 100.821 172.366Z" fill="#FF835B"/>
<path d="M100.821 172.366C104.461 148 83.0865 202.5 77.4823 202.5C71.8781 202.5 77.4823 188 67.8425 180.181C58.2026 172.363 75.7169 157 81.321 157C86.9252 157 97.1809 196.732 100.821 172.366Z" fill="#FF835B"/>
<path d="M100.821 172.366C104.461 148 83.0865 202.5 77.4823 202.5C71.8781 202.5 77.4823 188 67.8425 180.181C58.2026 172.363 75.7169 157 81.321 157C86.9252 157 97.1809 196.732 100.821 172.366Z" fill="#FF835B"/>
<path d="M100.821 172.366C104.461 148 83.0865 202.5 77.4823 202.5C71.8781 202.5 77.4823 188 67.8425 180.181C58.2026 172.363 75.7169 157 81.321 157C86.9252 157 97.1809 196.732 100.821 172.366Z" fill="#FF835B"/>
<path d="M120.321 181.553C123.961 157.186 102.586 211.686 96.9821 211.686C91.378 211.686 96.9821 197.186 87.3423 189.368C77.7024 181.549 95.2167 166.186 100.821 166.186C106.425 166.186 116.681 205.919 120.321 181.553Z" fill="#FF835B"/>
<path d="M120.321 181.553C123.961 157.186 102.586 211.686 96.9821 211.686C91.378 211.686 96.9821 197.186 87.3423 189.368C77.7024 181.549 95.2167 166.186 100.821 166.186C106.425 166.186 116.681 205.919 120.321 181.553Z" fill="#FF835B"/>
<path d="M120.321 181.553C123.961 157.186 102.586 211.686 96.9821 211.686C91.378 211.686 96.9821 197.186 87.3423 189.368C77.7024 181.549 95.2167 166.186 100.821 166.186C106.425 166.186 116.681 205.919 120.321 181.553Z" fill="#FF835B"/>
<path d="M120.321 181.553C123.961 157.186 102.586 211.686 96.9821 211.686C91.378 211.686 96.9821 197.186 87.3423 189.368C77.7024 181.549 95.2167 166.186 100.821 166.186C106.425 166.186 116.681 205.919 120.321 181.553Z" fill="#FF835B"/>
</g>
<defs>
<linearGradient id="paint0_linear" x1="264.25" y1="39.4606" x2="266" y2="343" gradientUnits="userSpaceOnUse">
<stop offset="0.786458" stop-color="#FF7448"/>
<stop offset="1" stop-color="#FF835B" stop-opacity="0"/>
</linearGradient>
<clipPath id="clip0">
<rect width="402" height="424" fill="white" transform="translate(35 22)"/>
</clipPath>
</defs>
</svg>
