<?xml version="1.0" encoding="iso-8859-1"?>
<!-- Generator: Adobe Illustrator 18.0.0, SVG Export Plug-In . SVG Version: 6.00 Build 0)  -->
<!DOCTYPE svg PUBLIC "-//W3C//DTD SVG 1.1//EN" "http://www.w3.org/Graphics/SVG/1.1/DTD/svg11.dtd">
<svg version="1.1" id="_x31_" xmlns="http://www.w3.org/2000/svg" xmlns:xlink="http://www.w3.org/1999/xlink" x="0px" y="0px"
	 viewBox="0 0 512 512" style="enable-background:new 0 0 512 512;" xml:space="preserve">
<g>
	<rect style="fill:#F6B597;" width="512" height="512"/>
	<polygon style="opacity:0.1;fill:#231815;" points="512,304.74 512,512 218.575,512 167.27,460.7 309.095,274.225 187.65,152.78 
		189.285,143.87 103.22,57.855 164.352,64.92 197.63,98.2 202.905,69.375 351.695,218.165 383.54,176.28 	"/>
	<g>
		<polygon style="fill:#C8E7F1;" points="167.295,460.68 138.79,176.295 383.525,176.295 355.03,460.68 		"/>
		<polygon style="fill:#E5F4F7;" points="353.085,176.295 169.235,176.295 174.41,245.155 347.91,245.155 		"/>
		<polygon style="fill:#6DC096;" points="174.41,245.155 192.22,422.815 330.1,422.815 347.91,245.155 		"/>
		<path style="fill:#FFFFFF;" d="M289.045,296.8c0,6.84-5.545,12.4-12.395,12.4c-6.845,0-12.39-5.56-12.39-12.4
			c0-6.85,5.545-12.4,12.39-12.4C283.5,284.4,289.045,289.95,289.045,296.8z"/>
		<circle style="fill:#FFFFFF;" cx="297.307" cy="369.1" r="6.198"/>
		<path style="fill:#FFFFFF;" d="M266.32,342.245c0,5.7-4.62,10.33-10.32,10.33c-5.715,0-10.335-4.63-10.335-10.33
			c0-5.705,4.62-10.335,10.335-10.335C261.7,331.91,266.32,336.54,266.32,342.245z"/>
		<g>
			<polygon style="fill:#FEFFFF;" points="212.97,175.605 189.45,175.605 196.025,245.155 219.545,245.155 			"/>
			<polygon style="fill:#FFFFFF;" points="202.92,69.37 111.285,35.85 103.24,57.845 181,86.29 189.45,175.605 212.97,175.605 			
				"/>
			<polygon style="fill:#B7DDC8;" points="196.025,245.155 209.225,384.66 232.53,382.46 219.545,245.155 			"/>
		</g>
	</g>
</g>
</svg>
