<?xml version="1.0" encoding="iso-8859-1"?>
<!-- Generator: Adobe Illustrator 18.0.0, SVG Export Plug-In . SVG Version: 6.00 Build 0)  -->
<!DOCTYPE svg PUBLIC "-//W3C//DTD SVG 1.1//EN" "http://www.w3.org/Graphics/SVG/1.1/DTD/svg11.dtd">
<svg version="1.1" id="_x32_" xmlns="http://www.w3.org/2000/svg" xmlns:xlink="http://www.w3.org/1999/xlink" x="0px" y="0px"
	 viewBox="0 0 512 512" style="enable-background:new 0 0 512 512;" xml:space="preserve">
<g>
	<rect style="fill:#E17B80;" width="512" height="512"/>
	<polygon style="opacity:0.1;fill:#231815;" points="512,166.4 512,512 202.24,512 67.84,377.6 207.975,237.465 360.96,138.24 
		377.55,152.37 437.76,92.16 	"/>
	<g>
		<g>
			<path style="fill:#EB5D55;" d="M433.09,85c16.955,12.435,17.855,39.92,0.065,59.295C339.81,246.15,209.42,306.455,71.35,311.62
				c-26.28,0.995-46.635-17.49-45.13-38.455c1.485-21.025,20.53-36.86,42.275-37.73C186.205,231.04,297.38,179.62,376.96,92.78
				C391.705,76.775,416.11,72.515,433.09,85z"/>
			<path style="fill:#ECB25B;" d="M101.015,228.96c1.755,1.615,3.63,3.71,5.785,6.06c3.26,3.5,7.105,7.695,13.045,11.16
				c2.96,1.71,6.475,3.19,10.48,4.08c3.995,0.895,8.435,1.195,13.06,0.765c4.655-0.42,8.965-1.525,12.715-3.135
				c3.285-1.415,6.12-3.195,8.49-5.11c4.17-3.37,6.955-7.055,9.2-10.4c1.68-2.525,3.06-4.89,4.355-6.95
				c1.935-3.135,3.665-5.52,5.435-7.13c0.89-0.815,1.785-1.48,2.86-2.07c1.075-0.59,2.355-1.125,4.06-1.59
				c1.99-0.52,3.515-0.675,4.885-0.66c1.215,0.035,2.335,0.2,3.555,0.52c2.125,0.56,4.55,1.655,7.4,3.19
				c2.135,1.13,4.49,2.485,7.165,3.835c4.015,2,8.825,4.07,14.96,4.785c3.05,0.355,6.415,0.335,9.92-0.24
				c3.51-0.56,7.155-1.67,10.755-3.33c4.185-1.92,7.835-4.37,10.795-7.125c2.6-2.405,4.645-5.015,6.23-7.595
				c2.775-4.545,4.17-8.935,5.155-12.835c0.74-2.925,1.25-5.61,1.78-7.99c0.775-3.59,1.605-6.41,2.735-8.51
				c0.565-1.06,1.195-1.98,2.005-2.9c0.825-0.915,1.85-1.84,3.31-2.84c1.695-1.165,3.08-1.815,4.395-2.255
				c1.155-0.375,2.265-0.59,3.53-0.695c2.185-0.18,4.845,0.045,8.05,0.54c2.395,0.355,5.07,0.845,8.055,1.215
				c4.47,0.545,9.715,0.88,15.775-0.515c3.01-0.695,6.185-1.855,9.34-3.575c3.15-1.73,6.24-4.015,9.13-6.82
				c4.635-4.485,7.94-9.63,9.825-14.615c1.43-3.745,2.11-7.34,2.365-10.605c0.375-4.925-0.095-9.17-0.53-12.895
				c-0.455-3.715-0.875-6.91-0.875-9.55c-0.04-5.82-4.8-9.69-10.33-8.995c-5.535,0.705-9.865,5.53-9.975,11.125
				c-0.065,4.09,0.3,7.765,0.585,11.075c0.465,4.955,0.67,9.09,0.065,12.2c-0.29,1.57-0.73,2.89-1.41,4.19
				c-0.695,1.3-1.625,2.635-3.215,4.18c-1.535,1.495-2.855,2.38-4.13,3.02c-1.11,0.555-2.22,0.925-3.475,1.195
				c-2.18,0.46-4.87,0.505-8.065,0.235c-2.4-0.205-5.045-0.57-7.96-0.91c-4.345-0.495-9.325-0.96-14.905-0.23
				c-2.785,0.37-5.685,1.055-8.595,2.165c-2.905,1.105-5.79,2.625-8.59,4.545c-3.26,2.23-6.04,4.75-8.31,7.49
				c-1.98,2.385-3.555,4.895-4.8,7.385c-2.18,4.365-3.37,8.585-4.355,12.36c-0.725,2.84-1.325,5.46-1.99,7.77
				c-0.985,3.495-2.11,6.22-3.505,8.195c-0.695,1-1.455,1.83-2.41,2.64c-0.965,0.805-2.145,1.58-3.795,2.34
				c-1.915,0.88-3.435,1.27-4.835,1.445c-1.215,0.145-2.37,0.125-3.63-0.05c-2.195-0.305-4.72-1.16-7.635-2.49
				c-2.175-0.99-4.535-2.225-7.15-3.52c-3.91-1.92-8.425-4.03-13.905-5.195c-2.74-0.585-5.7-0.905-8.795-0.825
				c-3.1,0.075-6.32,0.545-9.605,1.435c-3.815,1.01-7.285,2.48-10.34,4.305c-2.67,1.585-5.005,3.45-7.015,5.38
				c-3.53,3.395-6.08,6.98-8.28,10.225c-1.65,2.44-3.105,4.705-4.515,6.67c-2.12,2.975-4.11,5.175-6.105,6.575
				c-1.005,0.705-2.01,1.25-3.2,1.69c-1.185,0.435-2.585,0.775-4.415,0.95c-2.83,0.24-4.691-0.055-6.435-0.61
				c-1.305-0.42-2.575-1.05-3.935-1.955c-2.035-1.33-4.21-3.305-6.595-5.72c-2.4-2.405-5-5.23-8.21-8.065
				c-4.205-3.685-10.705-3.735-14.995-0.115C97.18,218.89,96.775,225.01,101.015,228.96z"/>
			<path style="fill:#A0CD66;" d="M72.85,252.655c-10.13-0.335-16.03,7.605-5.74,15.32c10.42,7.565,14.18,10.665,14.14,10.69
				c61.73,0.29,121.945-13.145,176.675-38.455c54.725-25.31,103.96-62.495,143.725-109.71c-0.045,0.005,0.02-4.865,1.005-17.7
				c0.795-12.84-9.075-13.485-15.385-5.555c-11.595,13.975-3.925,20.79-16.745,34.36c-13.165,13.165-20.19,5.68-33.625,17.5
				c-13.74,11.415-7.445,19.52-22.33,30.355c-15.16,10.41-20.71,1.77-35.95,10.875c-15.465,8.655-10.75,17.765-27.28,25.695
				c-16.74,7.46-20.635-2.04-37.25,4.14c-16.79,5.715-13.81,15.535-31.56,20.34c-17.9,4.33-19.995-5.72-37.585-2.645
				c-17.7,2.58-16.555,12.78-35.1,14.28C91.22,263.13,90.995,252.875,72.85,252.655z"/>
			<path style="fill:#ECB25B;" d="M465.055,147.165c29.335,20.85,28.57,71.845-8.205,106.515
				c-87.02,82.12-198.56,133.705-317.49,146.825c-50.235,5.57-89.59-26.87-86.475-62.725c3.015-36.045,35.785-62.93,72.145-67.16
				c90.69-10.01,175.765-49.355,242.13-111.98C393.935,133.675,435.64,126.125,465.055,147.165z"/>
		</g>
		<g style="opacity:0.67;">
			<path style="opacity:0.14;fill:#673A1B;" d="M465.055,147.165c-7.9-5.65-16.695-9.185-25.84-10.92
				C450.405,117.915,447.8,95.8,433.09,85c-16.98-12.485-41.385-8.225-56.13,7.78c-8.405,9.175-17.23,17.85-26.31,26.225
				c-0.245-2.14-0.44-4.14-0.44-5.83c-0.04-5.82-4.8-9.69-10.33-8.995c-5.535,0.705-9.865,5.53-9.975,11.125
				c-0.065,4.09,0.3,7.765,0.585,11.075c0.36,3.825,0.555,7.145,0.355,9.9c-6.405,5.23-12.93,10.3-19.6,15.15
				c-0.34-0.02-0.63-0.005-0.985-0.03c-2.4-0.205-5.045-0.57-7.96-0.91c-4.345-0.495-9.325-0.96-14.905-0.23
				c-2.785,0.37-5.685,1.055-8.595,2.165c-2.905,1.105-5.79,2.625-8.59,4.545c-3.26,2.23-6.04,4.75-8.31,7.49
				c-1.98,2.385-3.555,4.895-4.8,7.385c-2.18,4.365-3.37,8.585-4.355,12.36c-0.31,1.22-0.595,2.375-0.875,3.51
				c-2.8,1.425-5.645,2.74-8.475,4.105l73.08,158.03c51.165-24.47,98.615-56.765,140.375-96.17
				C493.625,219.01,494.39,168.015,465.055,147.165z"/>
		</g>
	</g>
</g>
</svg>
