<?xml version="1.0" encoding="iso-8859-1"?>
<!-- Generator: Adobe Illustrator 18.0.0, SVG Export Plug-In . SVG Version: 6.00 Build 0)  -->
<!DOCTYPE svg PUBLIC "-//W3C//DTD SVG 1.1//EN" "http://www.w3.org/Graphics/SVG/1.1/DTD/svg11.dtd">
<svg version="1.1" id="_x33_" xmlns="http://www.w3.org/2000/svg" xmlns:xlink="http://www.w3.org/1999/xlink" x="0px" y="0px"
	 viewBox="0 0 512 512" style="enable-background:new 0 0 512 512;" xml:space="preserve">
<g>
	<rect style="fill:#E17B80;" width="512" height="512"/>
	<path style="opacity:0.1;fill:#040000;" d="M512,308.122V512H245.453l-92.621-92.621l-10.291-49.92l-1.69-8.141l-9.472-46.131
		l-0.666-3.225l-5.069-24.576h8.755c0.871-4.403,2.151-8.704,3.738-12.851c0.666-1.741,1.382-3.431,2.202-5.12
		c-9.626-1.075-17.664-3.431-22.682-7.373c-20.89-16.333,20.89-47.667,35.533-59.699c0,0-30.311-11.981-25.549-28.006
		c7.526-25.549,40.653-23.859,54.476-42.854c10.138-13.978,5.069-45.005,9.523-46.08c4.403-1.075,15.104,28.621,30.873,36.352
		c21.453,10.547,49.92-5.888,69.018,13.261c1.843,1.843,2.918,3.942,3.379,6.195c0.666-0.256,1.331-0.512,1.997-0.819
		c0.205-0.102,0.358-0.205,0.563-0.307v-0.051c9.011-4.659,16.384-16.742,21.606-24.832l9.114,9.114L512,308.122z"/>
	<line style="fill:none;" x1="443.821" y1="68.177" x2="68.141" y2="443.857"/>
	<g>
		<g>
			<path style="fill:#F1EBD9;" d="M390.605,271.872c-0.563,0.41-1.178,0.819-1.843,1.178c-0.512,0.307-1.024,0.614-1.536,0.87
				h-0.051c-22.938,11.315-82.944-0.051-106.291-7.117c-6.963-1.536-16.845-4.352-27.648-8.038
				c-1.997-0.666-3.993-1.331-6.042-2.099c-3.123-1.075-6.246-2.253-9.37-3.533c-0.205-0.102-0.409-0.153-0.614-0.256
				c-1.331-0.461-2.662-0.973-3.942-1.485c-16.077-6.656-31.744-14.694-41.318-23.245c-3.891-3.482-6.758-7.065-8.243-10.649
				c-5.325-13.005,8.96-20.787,25.242-25.754c0.717-0.205,1.433-0.409,2.15-0.614c10.957-3.072,22.426-4.966,29.235-6.246
				c0,0-18.79-22.784-7.424-33.638c17.408-16.742,42.24-2.611,62.003-10.035c0.666-0.256,1.331-0.512,1.997-0.819
				c0.205-0.102,0.358-0.205,0.563-0.307c9.011-4.506,16.435-16.64,21.709-24.781c2.97-4.557,5.274-7.885,6.759-7.885
				c0.051,0,0.051,0,0.051,0c0.051,0,0.102,0.051,0.205,0.051c1.997,0.512,1.69,7.936,1.997,16.845
				c0.307,8.858,1.229,19.302,5.786,25.805c3.84,5.53,9.421,9.267,15.462,12.442c1.895,1.024,3.84,1.946,5.786,2.918
				c2.407,1.178,4.813,2.304,7.168,3.482c3.226,1.638,6.298,3.431,9.114,5.478c0.563,0.41,1.075,0.819,1.638,1.229
				c0.512,0.41,1.024,0.819,1.485,1.28c0.512,0.41,0.973,0.819,1.434,1.331c0.41,0.41,0.768,0.768,1.126,1.178
				c1.382,1.587,2.662,3.328,3.686,5.273c0.256,0.461,0.512,0.973,0.717,1.485c0.307,0.563,0.563,1.126,0.768,1.741
				c0.358,0.87,0.666,1.843,0.922,2.816c4.045,14.899-24.167,25.344-24.167,25.344C372.327,227.482,410.215,257.229,390.605,271.872
				z"/>
			<path style="fill:#4E3F39;" d="M392.653,302.285v7.68l-0.665,1.997l-16.487,50.688c-5.786,7.168-12.851,13.21-20.838,17.715
				c-3.174,1.843-6.451,3.43-9.882,4.762c-5.53,2.15-11.366,3.686-17.408,4.403c-2.253,0.307-4.557,0.461-6.861,0.512H205.158
				c-2.304-0.051-4.608-0.205-6.861-0.512c-6.041-0.717-11.878-2.253-17.459-4.403c-3.379-1.331-6.707-2.867-9.83-4.71
				c-7.987-4.557-15.104-10.598-20.89-17.767l-0.205-0.563l-16.281-50.125l-0.666-1.997v-7.68c0-5.069,0.512-10.087,1.433-14.899
				c0.871-4.403,2.151-8.704,3.738-12.851c0.666-1.741,1.382-3.431,2.202-5.12c8.294-17.357,22.835-31.13,40.653-37.991
				c1.433-0.563,2.867-1.075,4.301-1.485c0.717-0.256,1.434-0.461,2.151-0.666c1.485-0.461,2.969-0.819,4.506-1.127
				c4.813-1.024,9.83-1.587,14.95-1.587H318.72c1.638,0,3.277,0.051,4.864,0.205c3.072,0.153,6.144,0.563,9.114,1.178
				c6.502,1.28,12.749,3.482,18.534,6.349c16.23,8.243,29.133,22.374,35.943,39.578l0.051,0.051c0.051,0.205,0.154,0.41,0.256,0.615
				c1.177,3.123,2.201,6.298,2.969,9.523c0.307,1.075,0.512,2.202,0.768,3.328C392.141,292.198,392.653,297.216,392.653,302.285z"/>
			<path style="fill:#FDFAF6;" d="M344.474,200.704c0.256,2.253-0.154,4.659-1.28,7.271c-2.867,6.553-10.086,12.902-19.61,18.79
				c-7.373,4.608-16.179,8.909-25.395,12.8c-13.261,5.683-27.494,10.496-39.783,14.029c-1.894,0.563-3.687,1.075-5.478,1.587
				c-1.229,0.307-2.458,0.666-3.635,0.973c-0.512,0.103-1.024,0.256-1.536,0.41c-0.205,0-0.359,0.051-0.563,0.102
				c-3.942,1.024-7.475,1.792-10.496,2.407c-20.429,5.683-66.253,13.875-96.358,10.342c-9.626-1.075-17.664-3.431-22.682-7.373
				c-20.89-16.333,20.89-47.667,35.533-59.699c0,0-30.311-11.981-25.549-28.006c7.526-25.549,40.653-23.859,54.476-42.854
				c10.138-13.978,5.069-45.005,9.523-46.08c4.403-1.075,15.104,28.621,30.873,36.352c21.453,10.547,49.92-5.888,69.018,13.261
				c1.843,1.843,2.918,3.942,3.379,6.195c2.816,12.595-12.237,30.054-12.237,30.054c3.482,0.768,8.09,1.638,13.261,2.816
				c1.178,0.256,2.457,0.512,3.737,0.819c1.536,0.358,3.072,0.768,4.659,1.178c0.103,0,0.154,0.051,0.256,0.051
				c7.987,1.997,16.384,4.557,23.398,7.885c7.065,3.277,12.749,7.322,15.206,12.288c0.614,1.229,1.075,2.509,1.229,3.84
				C344.474,200.346,344.474,200.499,344.474,200.704z"/>
			<path style="opacity:0.03;fill:#040000;" d="M313.088,144.589c3.123,11.315-9.83,26.368-13.056,29.952
				c0,0.051-0.051,0.051-0.051,0.051c-0.103,0.153-0.205,0.205-0.307,0.307c-0.051,0.103-0.102,0.153-0.154,0.205
				c-1.229-0.358-2.406-0.717-3.584-1.024c-4.762-1.331-9.011-2.406-12.237-3.328c0,0,17.306-17.767,13.773-30.669v-0.051
				c9.011-4.659,16.384-16.742,21.606-24.832c3.072-4.71,5.376-8.089,6.861-7.782c0.051,0,0.051,0,0.051,0
				c2.048,0.563,1.741,7.833,1.997,16.691c0.102,1.741,0.153,3.533,0.307,5.325C323.994,135.527,318.874,141.568,313.088,144.589z"
				/>
			<path style="opacity:0.1;fill:#040000;" d="M349.792,212.376c-10.827,21.099-69.62,37.766-101.007,43.56
				c6.235,2.373,12.407,4.511,18.178,6.357c-9.232-2.398-21.367-6.185-33.785-10.917c31.388-5.794,90.18-22.461,101.007-43.56
				c8.282-16.124-14.12-26.731-34.757-33.412C321.446,180.346,360.299,191.931,349.792,212.376z"/>
			<g>
				<polygon style="fill:#A5D080;" points="178.432,426.65 154.317,426.65 152.832,419.379 142.541,369.459 140.851,361.318 
					131.379,315.187 130.714,311.962 125.645,287.386 156.109,287.386 160.051,311.962 165.581,346.419 171.008,380.416 				"/>
				<polygon style="fill:#F4F4F5;" points="202.542,426.655 178.433,426.655 160.06,311.971 156.113,287.363 186.605,287.363 
					189.422,311.971 				"/>
				<polygon style="fill:#A5D080;" points="226.651,426.655 202.542,426.655 189.422,311.971 186.605,287.363 217.084,287.363 
					218.772,311.971 				"/>
				<polygon style="fill:#F4F4F5;" points="250.773,426.655 226.651,426.655 218.772,311.971 217.084,287.363 247.576,287.363 
					248.147,311.971 				"/>
				<polygon style="fill:#A5D080;" points="278.067,287.363 277.509,311.971 274.882,426.655 250.773,426.655 248.147,311.971 
					247.576,287.363 				"/>
				<polygon style="fill:#F4F4F5;" points="308.559,287.363 306.871,311.971 298.991,426.655 274.882,426.655 277.509,311.971 
					278.067,287.363 				"/>
				<polygon style="fill:#A5D080;" points="339.051,287.363 336.234,311.971 323.1,426.655 298.991,426.655 306.871,311.971 
					308.559,287.363 				"/>
				<polygon style="fill:#F4F4F5;" points="369.542,287.363 365.596,311.971 347.222,426.655 323.1,426.655 336.234,311.971 
					339.051,287.363 				"/>
				<polygon style="fill:#A5D080;" points="400.034,287.363 394.958,311.971 371.331,426.655 347.222,426.655 365.596,311.971 
					369.542,287.363 				"/>
			</g>
			<ellipse style="fill:#D63A61;" cx="323.104" cy="222.091" rx="30.877" ry="29.688"/>
			<path style="fill:#D63A61;" d="M332.581,205.824c0,0,23.595-21.935,29.271-23.587v5.897l-20.389,14.03L332.581,205.824z"/>
			<g>
				<path style="fill:#D63A61;" d="M212.002,191.5c-0.877-0.59-2.076-0.571-2.925,0.139l-3.221,2.689
					c-0.849,0.709-1.078,1.881-0.647,2.844c0.09,0.201,0.198,0.395,0.346,0.571c0.86,1.022,2.404,1.157,3.43,0.3l3.221-2.689
					c1.026-0.857,1.162-2.393,0.301-3.415C212.358,191.763,212.184,191.623,212.002,191.5z"/>
				<path style="opacity:0.1;fill:#040000;" d="M211.355,194.344l-3.221,2.689c-0.849,0.709-2.048,0.729-2.925,0.139
					c0.09,0.201,0.198,0.395,0.346,0.571c0.86,1.022,2.404,1.157,3.43,0.3l3.221-2.689c1.026-0.857,1.162-2.393,0.301-3.415
					c-0.148-0.176-0.322-0.316-0.504-0.438C212.432,192.463,212.204,193.635,211.355,194.344z"/>
			</g>
			<g>
				<path style="fill:#DD933A;" d="M184.908,223.562c-1.232-0.678-2.398-0.444-2.789,0.697l-1.483,4.33
					c-0.391,1.142,0.118,2.826,1.145,4.105c0.214,0.266,0.442,0.521,0.697,0.743c1.486,1.287,3.088,1.211,3.56-0.168l1.482-4.33
					c0.472-1.379-0.357-3.56-1.843-4.847C185.423,223.87,185.164,223.704,184.908,223.562z"/>
				<path style="opacity:0.1;fill:#040000;" d="M186.053,227.667l-1.482,4.33c-0.391,1.142-1.557,1.375-2.789,0.697
					c0.214,0.266,0.442,0.521,0.697,0.743c1.486,1.287,3.088,1.211,3.56-0.168l1.482-4.33c0.472-1.379-0.357-3.56-1.843-4.847
					c-0.256-0.222-0.514-0.388-0.77-0.529C185.935,224.841,186.444,226.526,186.053,227.667z"/>
			</g>
			<g>
				<path style="fill:#63C0AC;" d="M240.13,200.844c-0.462-1.098-1.488-1.758-2.546-1.519l-4.015,0.907
					c-1.059,0.239-1.811,1.301-1.906,2.525c-0.02,0.255-0.021,0.514,0.021,0.777c0.242,1.527,1.486,2.541,2.765,2.252l4.015-0.907
					c1.279-0.289,2.127-1.775,1.885-3.302C240.307,201.313,240.226,201.073,240.13,200.844z"/>
				<path style="opacity:0.1;fill:#040000;" d="M238.224,203.369l-4.015,0.907c-1.059,0.239-2.084-0.421-2.546-1.519
					c-0.02,0.255-0.021,0.514,0.021,0.777c0.242,1.527,1.486,2.541,2.765,2.252l4.015-0.907c1.279-0.289,2.127-1.775,1.885-3.302
					c-0.042-0.263-0.122-0.504-0.218-0.732C240.035,202.068,239.283,203.13,238.224,203.369z"/>
			</g>
			<g>
				<path style="fill:#63C0AC;" d="M258.84,155.624c0.851-0.978,1.082-2.337,0.463-3.319l-2.349-3.724
					c-0.619-0.982-1.891-1.273-3.068-0.811c-0.245,0.096-0.487,0.213-0.717,0.376c-1.334,0.947-1.813,2.693-1.064,3.879l2.349,3.724
					c0.748,1.186,2.451,1.382,3.785,0.435C258.468,156.021,258.662,155.828,258.84,155.624z"/>
				<path style="opacity:0.1;fill:#040000;" d="M255.771,154.814l-2.349-3.724c-0.619-0.982-0.388-2.341,0.463-3.319
					c-0.245,0.096-0.487,0.213-0.717,0.376c-1.334,0.947-1.813,2.693-1.064,3.879l2.349,3.724c0.748,1.186,2.451,1.382,3.785,0.435
					c0.23-0.163,0.424-0.356,0.601-0.56C257.663,156.086,256.391,155.795,255.771,154.814z"/>
			</g>
			<g>
				<path style="fill:#AD509A;" d="M282.354,188.996c-0.045-1.389-0.522-2.617-1.21-2.923l-2.608-1.161
					c-0.688-0.306-1.366,0.407-1.682,1.635c-0.066,0.256-0.122,0.525-0.152,0.822c-0.178,1.721,0.355,3.432,1.186,3.802l2.608,1.161
					c0.831,0.37,1.656-0.736,1.835-2.457C282.361,189.578,282.363,189.285,282.354,188.996z"/>
				<path style="opacity:0.1;fill:#040000;" d="M280.671,190.631l-2.608-1.161c-0.688-0.306-1.165-1.534-1.21-2.923
					c-0.066,0.256-0.122,0.525-0.152,0.822c-0.178,1.721,0.355,3.432,1.186,3.802l2.608,1.161c0.831,0.37,1.656-0.736,1.835-2.457
					c0.031-0.296,0.033-0.59,0.024-0.879C282.037,190.224,281.359,190.937,280.671,190.631z"/>
			</g>
			<g>
				<path style="fill:#D63A61;" d="M271.294,218.772c-1.036-0.453-2.319-0.26-3.118,0.559l-3.029,3.108
					c-0.799,0.819-0.857,2.003-0.241,2.887c0.128,0.184,0.275,0.359,0.462,0.511c1.086,0.879,2.765,0.788,3.729-0.202l3.029-3.108
					c0.965-0.99,0.865-2.519-0.221-3.398C271.718,218.979,271.509,218.867,271.294,218.772z"/>
				<path style="opacity:0.1;fill:#040000;" d="M271.053,221.66l-3.029,3.108c-0.799,0.819-2.082,1.012-3.118,0.559
					c0.128,0.184,0.275,0.359,0.462,0.511c1.086,0.879,2.765,0.788,3.729-0.202l3.029-3.108c0.965-0.99,0.865-2.519-0.221-3.398
					c-0.187-0.151-0.396-0.263-0.611-0.358C271.909,219.656,271.851,220.84,271.053,221.66z"/>
			</g>
			<g>
				<path style="fill:#D63A61;" d="M148.083,249.522c-0.845-0.588-2.076-0.664-3.011-0.105l-3.547,2.118
					c-0.935,0.559-1.276,1.573-0.923,2.455c0.074,0.184,0.166,0.363,0.302,0.53c0.788,0.967,2.358,1.206,3.488,0.531l3.547-2.118
					c1.13-0.675,1.409-2.018,0.62-2.985C148.424,249.781,148.259,249.644,148.083,249.522z"/>
				<path style="opacity:0.1;fill:#040000;" d="M147.16,251.976l-3.547,2.118c-0.935,0.559-2.165,0.483-3.011-0.105
					c0.074,0.184,0.166,0.363,0.302,0.53c0.788,0.967,2.358,1.206,3.488,0.531l3.547-2.118c1.13-0.675,1.409-2.018,0.62-2.985
					c-0.136-0.167-0.301-0.303-0.477-0.425C148.437,250.404,148.095,251.418,147.16,251.976z"/>
			</g>
			<g>
				<path style="fill:#D63A61;" d="M216.006,148.307c-0.064-1.27-0.852-2.402-2-2.695l-4.355-1.112
					c-1.148-0.293-2.289,0.346-2.829,1.462c-0.112,0.232-0.208,0.478-0.262,0.748c-0.313,1.57,0.566,3.144,1.953,3.498l4.355,1.112
					c1.387,0.354,2.778-0.641,3.091-2.21C216.013,148.839,216.02,148.571,216.006,148.307z"/>
				<path style="opacity:0.1;fill:#040000;" d="M213.177,149.769l-4.355-1.112c-1.148-0.293-1.936-1.424-2-2.695
					c-0.112,0.232-0.208,0.478-0.262,0.748c-0.313,1.57,0.566,3.144,1.953,3.498l4.355,1.112c1.387,0.354,2.778-0.641,3.091-2.21
					c0.054-0.27,0.061-0.538,0.047-0.803C215.466,149.423,214.325,150.062,213.177,149.769z"/>
			</g>
			<g>
				<path style="fill:#BDD646;" d="M172.835,172.972c-0.915-0.644-2.146-0.591-3.002,0.23l-3.247,3.115
					c-0.856,0.821-1.064,2.149-0.599,3.225c0.097,0.224,0.212,0.441,0.368,0.635c0.907,1.131,2.496,1.245,3.53,0.252l3.247-3.115
					c1.034-0.992,1.138-2.729,0.231-3.86C173.207,173.259,173.025,173.106,172.835,172.972z"/>
				<path style="opacity:0.1;fill:#040000;" d="M172.236,176.197l-3.247,3.115c-0.856,0.821-2.087,0.874-3.002,0.23
					c0.097,0.224,0.212,0.441,0.368,0.635c0.907,1.131,2.496,1.245,3.53,0.252l3.247-3.115c1.034-0.992,1.138-2.729,0.231-3.86
					c-0.156-0.195-0.338-0.348-0.528-0.482C173.3,174.048,173.092,175.375,172.236,176.197z"/>
			</g>
			<g>
				<path style="fill:#DD933A;" d="M272.297,266.418c-0.425-1.461-1.437-2.392-2.516-2.156l-4.094,0.897
					c-1.079,0.237-1.881,1.565-2.024,3.151c-0.03,0.33-0.041,0.667-0.009,1.012c0.186,2.004,1.405,3.41,2.709,3.124l4.094-0.897
					c1.304-0.286,2.219-2.159,2.033-4.163C272.457,267.041,272.385,266.722,272.297,266.418z"/>
				<path style="opacity:0.1;fill:#040000;" d="M270.273,269.569l-4.094,0.897c-1.079,0.237-2.091-0.695-2.516-2.156
					c-0.03,0.33-0.041,0.667-0.009,1.012c0.186,2.004,1.405,3.41,2.709,3.124l4.094-0.897c1.304-0.286,2.219-2.159,2.033-4.163
					c-0.032-0.345-0.104-0.664-0.193-0.968C272.154,268.004,271.352,269.332,270.273,269.569z"/>
			</g>
			<g>
				<path style="fill:#BDD646;" d="M356.886,257.236c-0.581-1.561-1.867-2.498-3.193-2.155l-5.028,1.301
					c-1.326,0.343-2.267,1.856-2.384,3.598c-0.024,0.363-0.026,0.731,0.027,1.105c0.306,2.172,1.866,3.611,3.467,3.196l5.028-1.301
					c1.602-0.414,2.662-2.531,2.357-4.703C357.108,257.903,357.007,257.56,356.886,257.236z"/>
				<path style="opacity:0.1;fill:#040000;" d="M354.502,260.833l-5.028,1.301c-1.326,0.343-2.612-0.594-3.193-2.155
					c-0.024,0.363-0.026,0.731,0.027,1.105c0.306,2.172,1.866,3.611,3.467,3.196l5.028-1.301c1.602-0.414,2.662-2.531,2.357-4.703
					c-0.053-0.374-0.154-0.716-0.275-1.041C356.77,258.977,355.828,260.49,354.502,260.833z"/>
			</g>
			<g>
				<path style="fill:#D63A61;" d="M317.113,167.697c-0.27-1.182-0.946-1.961-1.682-1.811l-2.793,0.571
					c-0.736,0.151-1.298,1.183-1.415,2.444c-0.024,0.262-0.036,0.531-0.019,0.808c0.101,1.607,0.911,2.772,1.8,2.59l2.793-0.571
					c0.889-0.182,1.535-1.645,1.434-3.252C317.215,168.2,317.17,167.943,317.113,167.697z"/>
				<path style="opacity:0.1;fill:#040000;" d="M315.698,170.141l-2.793,0.571c-0.736,0.151-1.412-0.629-1.682-1.811
					c-0.024,0.262-0.036,0.531-0.019,0.808c0.101,1.607,0.911,2.772,1.8,2.59l2.793-0.571c0.889-0.182,1.535-1.645,1.434-3.252
					c-0.017-0.277-0.062-0.534-0.118-0.78C316.996,168.958,316.434,169.99,315.698,170.141z"/>
			</g>
			<polygon style="fill:#F1EBD9;" points="400.026,287.386 394.957,311.962 130.714,311.962 125.645,287.386 			"/>
		</g>
		<path style="opacity:0.09;fill:#040000;" d="M400.026,287.386l-5.069,24.576L371.354,426.65H154.317l-1.485-7.27l-10.291-49.92
			l126.771-126.771l16.128-16.128l6.912-6.912l35.84-35.84l21.248-21.248c1.895,1.024,3.84,1.946,5.786,2.918
			c2.407,1.178,4.813,2.304,7.168,3.482c3.226,1.638,6.298,3.431,9.114,5.478c0.563,0.41,1.075,0.819,1.638,1.229
			c0.512,0.41,1.024,0.819,1.485,1.28c0.512,0.41,0.973,0.819,1.434,1.331c0.41,0.41,0.768,0.768,1.126,1.178
			c1.382,1.587,2.662,3.328,3.686,5.273c0.256,0.461,0.512,0.973,0.717,1.485c0.307,0.563,0.563,1.126,0.768,1.741
			c0.358,0.87,0.666,1.843,0.922,2.816c4.045,14.899-24.167,25.344-24.167,25.344c13.21,11.367,51.098,41.114,31.488,55.757
			c-0.563,0.41-1.178,0.819-1.843,1.178c-0.512,0.256-1.024,0.563-1.587,0.819v0.051h0.051c0.051,0.205,0.154,0.41,0.256,0.615
			c1.177,3.123,2.201,6.298,2.969,9.523c0.256,1.126,0.512,2.202,0.717,3.328H400.026z"/>
	</g>
</g>
</svg>
