<!--?xml version="1.0" encoding="utf-8"?-->
<!-- Generator: Adobe Illustrator 22.1.0, SVG Export Plug-In . SVG Version: 6.00 Build 0)  -->
<svg version="1.1" id="_x34_" xmlns="http://www.w3.org/2000/svg" xmlns:xlink="http://www.w3.org/1999/xlink" x="0px" y="0px" viewBox="0 0 800 148.6" style="enable-background:new 0 0 800 148.6;" xml:space="preserve">
<style type="text/css">
	.stblack{fill:#000000;}
	.st0{fill:#FFFFFF;}
</style>
<g>
	<path class="st0" d="M778.3,73.2c-10.6-8.5-17.9-4.7-22.9-14.3c-0.5-1-5.5-2.9-6-4.2c-0.1-0.4,5.2,4.1,5,2.2
		c-0.4-5.1-1.6-19.8-1.6-30.2c0-10.1-6.8-18.8-17-18.8c-17.4,0-17.4,0.2-34.8,0.2c-17.4,0-17.4,0.3-34.7,0.3
		c-17.4,0-17.4-0.9-34.8-0.9c-17.4,0-17.4,1-34.8,1c-17.4,0-17.4,0.9-34.8,0.9c-17.4,0-17.4-2.3-34.8-2.3c-17.4,0-17.4,1.4-34.8,1.4
		c-17.4,0-17.4,1.2-34.8,1.2c-17.4,0-17.4-1.4-34.8-1.4c-17.4,0-17.4,0.3-34.8,0.3c-17.4,0-17.4,0.1-34.8,0.1c-17.4,0-17.4,0-34.7,0
		c-17.4,0-17.4,0.8-34.8,0.8s-17.4-1.2-34.8-1.2c-17.4,0-17.4-0.5-34.8-0.5c-17.4,0-17.4-0.9-34.8-0.9S162.4,7.4,145,7.4
		s-17.4,1.2-34.8,1.2c-17.4,0-17.4-1.3-34.8-1.3c-17.4,0-17.4,1.6-34.8,1.6C30.6,8.9,22,16.5,22,26.6c0,15.9,0,15.9,0,31.8
		c0,15.9,1.1,15.9,1.1,31.8s0.3,15.9,0.3,31.8c0,10.1,7.2,17.5,17.3,17.5c17.4,0,17.4,1.4,34.7,1.4c17.4,0,17.4,0.4,34.7,0.4
		c17.4,0,17.4-1.3,34.8-1.3s17.4,1.1,34.8,1.1c17.4,0,17.4-2.1,34.8-2.1c17.4,0,17.4,0.7,34.8,0.7s17.4,0.5,34.8,0.5
		s17.4-0.7,34.8-0.7c17.4,0,17.4-0.5,34.8-0.5s17.4,2.8,34.8,2.8s17.4-0.9,34.8-0.9c17.4,0,17.4,0.6,34.7,0.6
		c17.4,0,17.4-2.1,34.8-2.1c17.4,0,17.4-0.2,34.8-0.2c17.4,0,17.4,2.1,34.8,2.1c17.4,0,17.4-0.7,34.8-0.7c17.4,0,17.4-0.4,34.8-0.4
		c17.4,0,17.4-0.5,34.8-0.5c17.4,0,17.4,0,34.8,0c17.4,0,17.4,0.5,34.8,0.5c10.1,0,18.5-8.1,18.5-18.2c0-11.8-1.3-24.2-1.3-24.2
		c7.3-13.2,12.5-9.3,24.2-18.8C779.1,77.5,780.2,74.8,778.3,73.2z" style="fill: rgb(227, 254, 255);"></path>
	<path class="stblack" d="M777.6,71.2c-1.6-1.2-3.2-2.3-4.9-3.2c-1.8-0.9-3.5-1.9-5.3-2.6c-1.8-0.7-3.6-1.6-5.5-2.4c-1.7-0.7-3.5-1-4.5-2.2
		c-1-1.2-1.6-2.6-2.9-3.8c-1.6-1.6-3.8-2.7-5.3-4.5c0.3,1.5,1.1,2.7,1.4,4.2c1.8,0.6,2.5,3.2,4.6,3.3c0.1,0-0.2-0.4-0.2-0.5
		c0.6-1.4,0.8-3.2,0.7-5.3c-0.1-1.8,0.1-3.8-0.1-5.6c-0.3-2.1-0.9-4-1-5.4c-0.1-2-0.1-4-0.1-6c0-2-0.2-4-0.3-6c-0.1-2-0.2-4-0.5-6
		c-0.3-2-0.4-4-1.1-5.9c-0.5-1.5-2.1-2.5-2.9-3.9c-0.8-1.4-1.3-2.9-2.3-4.1c-1.1-1.2-2.1-2.5-3.5-3.3c-1.7-1-3.7-1.4-5.5-1.8
		c-1.9-0.4-3.8-0.2-5.8-0.2c-1.9-0.1-3.9-1.3-5.9-1.2c-2,0.1-3.9,0.6-5.8,0.6c-1.9,0-3.8-0.5-5.7-0.4c-1.9,0-3.8,0.1-5.6,0.1
		c-1.9,0-3.8-0.2-5.6-0.2c-1.9,0-3.8,0.7-5.7,0.7c-1.9,0-3.8-0.6-5.6-0.6c-1.9,0-3.8-0.1-5.6-0.1c-1.9,0-3.8,1.1-5.7,1.1
		c-1.9,0-3.8-0.3-5.6-0.3c-1.9,0-3.8,0.3-5.7,0.3c-1.9,0-3.8,0.1-5.7,0.1c-1.9,0-3.8-0.3-5.6-0.4c-1.9,0-3.8-0.5-5.6-0.5
		c-1.9,0-3.8-0.2-5.6-0.3c-1.9,0-3.8,0.4-5.7,0.4c-1.9,0-3.8-0.8-5.6-0.8c-1.9,0-3.8,0-5.7,0c-1.9,0-3.8,0.3-5.7,0.4
		c-1.9,0-3.8,0-5.7,0c-1.9,0-3.8,0.4-5.7,0.5c-1.9,0.1-3.8,0.6-5.7,0.7c-1.9,0.1-3.9-0.8-5.8-0.7c-1.9,0.1-3.8,1.3-5.7,1.4
		s-3.8-0.5-5.8-0.4c-1.9,0.1-3.8,0.7-5.7,0.7c-1.9,0.1-3.8-0.7-5.8-0.6s-3.8,0-5.7,0c-1.9,0-3.8,0.9-5.7,0.9c-1.9,0-3.8-0.9-5.7-0.9
		c-1.9,0-3.8,0-5.7-0.1c-1.9-0.1-3.8,0.3-5.8,0.2c-1.9-0.1-3.7-1.2-5.6-1.3c-1.9-0.2-3.9,0.7-5.8,0.5c-1.9-0.2-3.7-0.8-5.5-0.9
		c-1.9-0.1-3.7,0.2-5.6,0.2c-1.9,0-3.7-0.1-5.6,0c-1.9,0.1-3.7,0.1-5.6,0.2c-1.9,0.1-3.8-0.5-5.6-0.4c-1.9,0.1-3.7,1.3-5.5,1.4
		c-1.9,0.1-3.8-0.4-5.6-0.3c-1.9,0.1-3.7,0.9-5.6,0.9c-2,0-4-0.1-6,0c-2,0.1-4-0.5-6-0.4c-2,0.1-4,0.2-6,0.3c-2,0.1-4,1.1-6,1.1
		c-2,0.1-4-0.1-6-0.1c-2,0.1-4,0.4-6,0.4c-2,0-4-0.6-6-0.6c-2,0-4,0.2-6,0.1c-2-0.1-3.9-1-5.9-1c-2-0.1-3.9-0.2-5.9-0.2
		c-2-0.1-4,0.4-5.9,0.4c-2,0-3.9-0.1-5.9-0.1c-2,0-3.9,0.5-5.9,0.5c-2,0-3.9-0.4-5.9-0.4c-2,0-3.9-0.4-5.9-0.4c-2,0-3.9-0.5-5.9-0.5
		c-2,0-3.9,0.6-5.9,0.6c-2,0-3.9-0.3-5.9-0.3c-2,0-3.9,0.3-5.9,0.3c-2,0-3.9,0.7-5.9,0.7c-2,0-3.9-1.2-5.9-1.2c-2,0-3.9,0.1-5.9,0.1
		c-2,0-3.9,0.8-5.9,0.8c-2,0-4.1-0.8-6.1-0.8c-2,0-4.1,0.7-6.1,0.7c-2,0-4.1-0.3-6.1-0.3c-2,0-4.1-0.6-6.1-0.6c-2,0-4.1,1.3-6.1,1.3
		c-2,0-4.1,0.1-6.1,0.1c-2,0-4.1-1.1-6.1-1c-2,0-4.1,0.3-6.1,0.4c-1.8,0-3.6,0.4-5.5,0.5c-1.8,0-3.6,0.5-5.5,0.5
		c-1.8,0-3.7-0.3-5.5-0.3c-1.8,0-3.7-0.4-5.5-0.3c-1.8,0-3.6-0.1-5.5-0.1c-1.8,0-3.7,0.8-5.5,0.7c-1.8,0-3.7,0.2-5.5,0.1
		c-1.8-0.1-3.6-0.9-5.4-1c-1.8-0.1-3.7,0-5.6-0.1c-1.8-0.1-3.7-0.9-5.5-1c-1.8-0.1-3.7,0.1-5.6,0.1c-1.8,0-3.7,0.3-5.6,0.3
		c-1.8,0-3.7-0.2-5.5-0.2c-1.9,0-3.7-0.2-5.5-0.2c-1.9,0-3.7,0.4-5.6,0.4c-1.9,0-3.7-0.5-5.5-0.5c-2,0-4.1,0.2-6.1,0.2
		c-2,0-4.1,0.2-6.1,0.1c-2-0.1-4.1,0-6.1,0c-2-0.1-4-1.2-6.1-1.2c-2-0.1-4.1,0.3-6.1,0.3c-2,0-4.1-0.6-6.1-0.6c-2,0-4.1,0.6-6.1,0.6
		c-2,0-4.1,0.2-6.1,0.2c-1.8,0-3.7,0.6-5.5,0.6c-1.8,0-3.7-0.4-5.5-0.4c-1.8,0-3.7,0-5.5,0c-1.8,0-3.7-0.6-5.6-0.5
		c-1.9,0-3.7,0.6-5.5,0.7c-1.9,0-3.7,0.2-5.5,0.2c-1.8,0.1-3.7,0.6-5.5,0.7c-1.8,0.1-3.8-0.9-5.6-0.7c-1.8,0.1-3.6,0.8-5.4,0.9
		c-1.8,0.1-3.7,0.3-5.5,0.3c-1.8,0-3.7-0.2-5.5-0.2c-1.8,0-3.7,0.3-5.5,0.2c-1.8,0-3.6-0.4-5.5-0.4c-1.8-0.1-3.6-0.9-5.4-1
		c-1.8-0.1-3.7,1-5.5,0.9c-1.8-0.1-3.6-1.3-5.4-1.4c-2-0.1-4.1,0.9-6.1,0.9c-2,0-4.1-1.2-6.1-1.2c-2,0-4.1,0.1-6.1,0.2
		c-2,0.1-4,0.6-6.1,0.7c-1.9,0.2-3.9,0.7-5.8,0.7c-2,0.1-3.9-0.1-5.9,0c-2,0.1-4-0.5-5.9-0.3c-2,0.1-3.8,1.2-5.7,1.5
		c-2,0.3-3.5,1.1-5,1.8c-1.7,0.8-3.3,1.4-4.5,2.7c-1.2,1.3-2.6,2.6-3.4,4.2c-0.7,1.6-1.4,3.4-1.8,5.2c-0.4,1.7-0.6,3.6-0.7,5.4
		c-0.1,1.8,0,3.6,0,5.4c0,1.8-0.5,3.7-0.4,5.4c0,1.9,1.2,3.7,1.2,5.4c0,2-1,4-1,6c0,2,0.6,4,0.7,6c0.1,2-0.4,4-0.4,6
		c0.1,2,1.2,4,1.3,6c0.1,2-0.4,4-0.3,6c0.1,2-0.4,4-0.4,6c0.1,2,1,4,1,6c0,2-0.2,4-0.2,6c0,1.7,0.3,3.4,0.3,5c0,1.7-0.6,3.4-0.6,5.1
		c0,1.7,0.4,3.4,0.4,5c0,1.7,0.7,3.4,0.7,5c0,2.2-0.9,4.4-0.9,6.6c0,2.2,0.6,4.4,0.9,6.5c0.3,2.1,0.3,4.5,1.2,6.5
		c0.9,1.9,2,3.5,3.2,4.8c1.3,1.5,3.4,2,4.9,3c1.6,1,3.2,2.1,5,2.6c1.8,0.5,3.6,0.9,5.6,1.1c1.8,0.2,3.7,0.4,5.7,0.5
		c1.9,0.1,3.8-0.1,5.7-0.1c1.9,0.1,3.7,0.6,5.6,0.8c2,0.2,4.1-0.9,6.2-0.8c2,0.1,4,1.1,6.1,1.1c2,0.1,4.1,0,6.1,0.1
		c2,0,4.1-0.1,6.1-0.1c2,0,4.1-0.1,6.1-0.1c2,0,4.1,0.4,6.1,0.4c2,0,4.1,0.5,6.1,0.5c2,0,4.1-0.9,6.1-0.9c2,0,4.1,0.7,6.1,0.7
		c2-0.1,4-0.9,6.1-1c2-0.1,4.1,0.1,6.1,0c2-0.1,4.1,0,6.1-0.1c2-0.1,4-1,6.1-1.1c2-0.1,4.1,0.6,6.1,0.6c2,0,4.1-0.9,6.1-0.9
		c1.9,0,3.7,1.1,5.6,1.2c1.9,0.1,3.7,0.4,5.6,0.5c1.9,0.1,3.8-0.2,5.7-0.1c1.9,0.1,3.7,0.5,5.6,0.6c1.9,0.1,3.8-1.3,5.7-1.3
		c1.9,0,3.7,0.2,5.6,0.2c1.9,0,3.8,0.6,5.7,0.5c1.9-0.1,3.7-1.1,5.5-1.3c1.9-0.2,3.9,0.7,5.8,0.6c1.9-0.2,3.7-1.1,5.7-1.2
		c1.9-0.1,3.8,0.1,5.7,0c1.9-0.1,3.8-0.7,5.7-0.8c1.9,0,3.8,0.5,5.7,0.5c1.9,0,3.8-0.3,5.7-0.3c1.9,0,3.8,0.9,5.7,0.9
		c1.9,0,3.8-0.5,5.7-0.5c1.9,0,3.8,0.1,5.7,0.2c1.9,0.1,3.8,0.1,5.7,0.2c1.9,0.1,3.8,0.1,5.7,0.2c1.9,0.1,3.8,0.7,5.7,0.8
		c1.9,0.1,3.8-0.2,5.7-0.2c1.9,0.1,3.8,0.2,5.7,0.3c1.9,0,3.8-0.7,5.7-0.7c1.9,0,3.8-0.2,5.7-0.2c1.9,0,3.8,0.9,5.8,0.9
		c1.9,0,3.8-0.9,5.7-0.9c1.9,0,3.8,0.2,5.8,0.2c1.9,0,3.9,0.8,5.8,0.7c1.9,0,3.8,0.1,5.8,0c1.9,0,3.8-1.1,5.7-1.1
		c1.9,0,3.9,0.5,5.8,0.5c1.9,0,3.8-0.3,5.7-0.4c1.9,0,3.7-0.1,5.6-0.1c1.9,0,3.7-0.3,5.6-0.3c1.9,0,3.7,0.9,5.6,0.9
		c1.9,0,3.7,0.1,5.6,0.2c1.9,0.1,3.7-0.2,5.6-0.1c1.9,0.1,3.7,0.7,5.5,0.8c1.9,0.1,3.7,0.2,5.6,0.4c1.8,0.2,3.7-0.1,5.6,0.1
		c1.9,0.2,3.8,0.8,5.7,0.9c1.9,0.1,3.8-0.1,5.7,0c1.9,0,3.8-0.8,5.7-0.8c1.9,0,3.8,0.6,5.7,0.5c1.9-0.1,3.8,0.2,5.7,0.1
		c1.9-0.1,3.8-0.1,5.7-0.2c1.9-0.1,3.8-0.3,5.7-0.4c1.9-0.1,3.8,0,5.7,0c2,0,3.9,0.1,5.9,0.1c2,0,3.9,0.1,5.9,0.1
		c2,0.1,3.9,0.2,5.9,0.2c2,0.1,4-1,5.9-1c2,0.1,3.9,0.1,5.9,0.1c2,0,3.9,0.8,5.9,0.8c2,0,3.9-0.9,5.9-1c2-0.1,4,0.9,5.9,0.7
		c1.8-0.2,3.6-0.4,5.4-0.5c1.8-0.1,3.5-1.2,5.3-1.3c1.8-0.1,3.6,0.6,5.4,0.5c1.8-0.1,3.6-1,5.4-1c1.8-0.1,3.6,0.5,5.4,0.4
		c1.8,0,3.6-0.7,5.4-0.7c1.8,0,3.6-0.2,5.4-0.2c1.8,0,3.6-0.1,5.4-0.1c1.9,0,3.8,1.3,5.8,1.4c1.9,0,3.8-0.3,5.8-0.2
		c1.9,0.1,3.9-0.4,5.8-0.3c1.9,0.1,3.8,0.5,5.7,0.6c1.9,0.1,3.8,0.8,5.7,0.9c1.9,0.1,3.9-0.5,5.8-0.4c1.9,0.1,3.8,0.1,5.8,0.2
		c1.9,0.1,3.8-0.1,5.8-0.1c1.8,0,3.7,0.5,5.5,0.6c1.8,0,3.7-0.5,5.5-0.5c1.9,0,3.7,0.2,5.5,0.1c1.8,0,3.7,1.1,5.6,1
		c1.8,0,3.7-0.9,5.5-1c1.8,0,3.7-0.5,5.5-0.5c1.8,0,3.7,0.1,5.6,0.1s3.7,0.8,5.6,0.8c1.8-0.1,3.7-0.1,5.5-0.2c1.8,0,3.7-1,5.5-1.1
		c1.8,0,3.7-0.3,5.5-0.3c1.8,0,3.7,0.7,5.6,0.7c1.8,0,3.7,0.2,5.5,0.2c1.9,0,3.8,0,5.7,0c1.9,0,3.8-0.9,5.7-0.9
		c1.9,0,3.8,0.6,5.7,0.6c1.9,0,3.8,0.2,5.7,0.2c1.9,0,3.8-0.2,5.7-0.3c1.9,0,3.8-1,5.7-1c1.9,0,3.8,0.8,5.7,0.8
		c1.9,0,3.8-0.7,5.7-0.7c1.9,0,3.8,1,5.7,1c1.9,0,3.8-0.8,5.7-0.8s3.8,0.2,5.7,0.2c1.9,0,3.8-0.2,5.7-0.2c1.9,0,3.8-0.2,5.7-0.2
		c1.9,0,3.7,0.4,5.6,0.5c1.9,0.1,3.7,0.2,5.6,0.3c1.9,0.1,3.7,0.7,5.6,0.8c1.9,0.1,3.8,0,5.7,0c1.9,0,3.8,0.2,5.7,0
		c1.9-0.1,3.6-1.5,5.5-1.8c2.2-0.3,4.3-0.1,5.9-1c1.8-1,3.4-2.4,4.6-4c1.2-1.6,1.3-3.7,2-5.7c0.6-1.8,1.3-3.7,1.6-5.7
		c0.3-2,0.8-3.9,0.8-5.9c0-2-0.1-4.1-0.2-6c-0.1-1.5,0-3.4-0.2-5.3c-0.2-1.7-0.7-3.4-0.7-5.1c0-1.9,0.2-3.6,1-4.9
		c1-1.6,1.5-3.5,2.7-4.7c1.3-1.3,3-2.1,4.5-3c1.5-0.9,2.9-2,4.6-2.8c1.8-0.8,3.9-1.1,5.6-2c1.8-1,2.9-2.9,4.2-4.2
		c1.5-1.5,2.9-2.8,2.9-4.8c0-1.6-0.1-3.7-1.5-5.8c-1.4-2-0.9,3.6-0.3,4.5c0.3,0.4,0.7,0.7,1,1.2c-0.5-1.3-0.6-2.6-1.1-3.9
		c0,1.9-0.8,3.7-2.3,5.1c-1.2,1.2-3.4,1.5-5.2,2.4c-1.7,0.9-3,2.5-4.7,3.2c-2,0.9-3.9,1.4-5.2,2.1c-1.2,0.7-2.5,1.9-3.9,3.2
		c-1.2,1.1-2.1,2.6-3,3.9c-1,1.6-1.8,2.8-1.6,4.3c0.2,2.1-0.4,4.2-0.2,6.3c0.2,2.1,0.3,4.2,0.4,6.3c0.1,2.1,0.5,4.2,0.6,6.3
		c0,2.1-0.2,4.2-0.4,6.3c-0.1,2.1-0.5,3.9-1.2,5.5c-0.8,1.8-2.3,2.9-3.7,4.2c-1.4,1.3-2.6,2.8-4.4,3.6c-1.7,0.8-3.6,1.4-5.5,1.8
		c-1.9,0.4-3.8,0.6-5.7,0.6c-1.9,0-3.7,0.4-5.6,0.4c-1.9,0-3.7,0.2-5.6,0.2c-1.9,0-3.7,0-5.6,0c-1.9,0-3.7-0.9-5.6-1
		c-1.9,0-3.7-0.1-5.6-0.1c-1.9,0-3.7,0.4-5.6,0.4c-1.9,0-3.7,0.1-5.6,0.1c-1.9,0-3.7,0.4-5.6,0.3s-3.7-0.6-5.6-0.6
		c-1.9,0-3.7,0.2-5.6,0.2c-1.9,0-3.7-0.8-5.6-0.8c-1.9,0-3.7-0.2-5.6-0.2c-1.9,0-3.7,1.3-5.6,1.3c-1.9,0-3.7-0.4-5.6-0.4
		c-1.9,0-3.7-0.3-5.6-0.3c-1.9,0-3.7,0.6-5.6,0.7c-2,0-3.9-0.1-5.9-0.1c-2,0-3.9-0.7-5.9-0.6c-2,0-3.9,1-5.9,1c-2,0-3.9,0.1-5.9,0.1
		c-2,0-3.9,0.4-5.9,0.4c-2,0-3.9-0.3-5.9-0.3c-2,0-3.9-0.8-5.9-0.8c-2,0-3.9,1-5.9,1c-2,0-4-0.8-6.1-0.8c-2,0-4-0.1-6.1-0.1
		c-2,0.1-4,0.6-6,0.7c-2,0.1-4,0-6.1,0c-2,0.1-4,0.3-6,0.3c-2,0-4-0.2-6-0.3c-2,0-4-0.2-6-0.3c-2-0.1-4.1,0.8-6.1,0.6
		c-2-0.2-3.9-1-5.9-1.1c-2-0.2-4,0.3-6,0.2c-2-0.1-4-0.4-6-0.5c-2-0.1-4-0.6-6-0.7c-2,0-4-0.2-6-0.2c-2,0-4,0.5-6,0.5
		c-2,0-4-0.1-6-0.1c-2.1,0-4.1-0.2-6.2-0.2c-2.1,0-4.1,0.1-6.2,0.2c-2.1,0-4.1,0.6-6.1,0.6c-2.1,0.1-4.2-1-6.2-0.9
		c-1.8,0.1-3.6,0.6-5.3,0.8c-1.8,0.2-3.5,1.2-5.3,1.4c-1.8,0.2-3.6,0-5.4,0.1c-1.8,0.1-3.6,0.5-5.4,0.5c-2,0-4,0.3-6,0.3
		c-2,0-4-1.1-6-1.1c-2,0-4,0.7-6,0.7c-2,0-4-0.9-6-1c-2-0.1-4-0.2-6-0.2c-2,0-4,0.4-6,0.4c-2,0-4-0.6-6-0.6c-2,0-4,1.1-6,1.1
		c-1.9,0.1-3.8-1.1-5.6-1.1c-1.9,0.1-3.7,0.9-5.6,0.9c-1.9,0-3.7,0.2-5.6,0.2c-1.9,0-3.7-0.2-5.6-0.3c-1.9,0-3.7-0.5-5.6-0.6
		c-1.9-0.1-3.7,0.3-5.6,0.2c-1.9-0.1-3.7-0.3-5.6-0.5c-1.8-0.2-3.8,0.1-5.6-0.2c-1.8-0.3-3.6-0.9-5.4-1c-1.8-0.2-3.6-0.9-5.5-1
		c-1.8-0.1-3.7,0.3-5.5,0.3c-1.8,0-3.7,0.2-5.5,0.2c-1.8,0-3.7,0-5.5,0c-1.8,0.1-3.6,0.5-5.5,0.6c-1.8,0.1-3.7,0.5-5.5,0.5
		c-1.8,0.1-3.7,0.2-5.5,0.2c-2,0-4.1-0.4-6.1-0.3c-2,0-4.1,0-6.1,0c-2,0-4.1,0.1-6.1,0.1c-2,0-4.1-0.3-6.1-0.3c-2,0-4.1-0.1-6.1,0
		c-2,0-4,1.3-6.1,1.3c-2,0-4.1,0-6.1,0c-2,0-4.1-0.4-6.1-0.4c-1.8,0-3.7-0.1-5.5-0.1c-1.8,0-3.7,0.3-5.5,0.3c-1.8,0-3.6-0.8-5.5-0.8
		c-1.8,0-3.7,0-5.5-0.1c-1.8,0-3.7,0.6-5.5,0.6c-1.8,0-3.6-0.6-5.5-0.7s-3.6-0.3-5.5-0.4c-1.8-0.1-3.7,0.4-5.5,0.3
		c-1.9-0.1-3.7-0.3-5.5-0.3c-1.9,0-3.7-0.6-5.6-0.5c-1.9,0-3.7,0.3-5.6,0.3c-1.9,0.1-3.7,0.9-5.5,1c-1.8,0.1-3.8-0.8-5.6-0.7
		c-1.8,0.1-3.7,0.8-5.5,0.9c-1.8,0.1-3.7-0.2-5.6-0.1c-1.8,0.1-3.6,1.3-5.5,1.4c-2,0.1-4.1-0.7-6.1-0.7c-2,0-4.1-0.1-6.1-0.2
		c-2,0-4.1-0.2-6.1-0.3c-2-0.1-4.1,0.1-6.1,0c-2-0.1-4.1-0.5-6.1-0.6c-2-0.1-4.1-0.2-6.1-0.2c-2-0.1-4.1,0.2-6.1,0.2
		c-2,0-4.1-0.3-6.1-0.3c-1.9,0-3.7,1-5.5,1.1c-1.8,0.1-3.7-0.9-5.6-0.8c-1.8,0.1-3.7,0.5-5.5,0.6c-1.8,0.1-3.7,0.9-5.5,1
		c-1.8,0.1-3.7-0.9-5.6-0.8c-1.8,0-3.7,1.1-5.5,1.1c-1.8,0-3.7-1.1-5.6-1.1c-1.8,0-3.7,0.4-5.5,0.3c-1.8,0-3.7-0.2-5.5-0.2
		c-1.8,0-3.7,0.4-5.5,0.4c-1.8,0-3.6-0.5-5.5-0.6c-1.8-0.1-3.7,0.1-5.5,0c-1.8-0.1-3.6-0.2-5.5-0.2c-1.8-0.1-3.7,0-5.5-0.1
		c-1.8-0.1-3.7-0.1-5.5-0.2c-1.8-0.1-3.6-0.3-5.5-0.4c-2-0.1-4,0.3-5.9,0.1c-2.1-0.1-4-0.7-5.8-1c-2.1-0.4-4.2-0.5-5.8-1.4
		c-1.7-0.9-2.6-2.8-3.7-4.6c-0.9-1.5-1.5-3.2-1.9-5.4c-0.3-1.7-0.9-3.6-0.9-5.8c0-1.8-0.1-3.6-0.1-5.4c0-1.8-0.5-3.6-0.6-5.4
		c0-1.8,0.6-3.6,0.6-5.5c0-1.8-0.3-3.6-0.3-5.4c0-1.8,0.1-3.6,0.1-5.5c0-1.8-0.6-3.6-0.6-5.4c0-1.8,0.8-3.7,0.8-5.5
		c-0.1-1.8-0.3-3.6-0.3-5.5s-0.3-3.6-0.3-5.5c-0.1-1.8-0.2-3.6-0.3-5.5c-0.1-1.8,0.3-3.6,0.2-5.5c0-1.8-0.3-3.6-0.4-5.5
		c0-1.8,0.1-3.6,0.1-5.5c0-1.8-0.4-3.6-0.5-5.4c0-1.8,0.8-3.6,0.8-5.4c0-1.8-0.1-3.6-0.1-5.4c0-1.8-1-3.6-0.9-5.4
		c0.1-2.1,1.3-3.8,2.1-5.4c0.9-1.7,1.6-3.7,3-5c1.4-1.2,3.1-2.5,4.9-3.3c1.7-0.8,3.8-1.3,5.7-1.6c1.9-0.4,4,0,5.8,0
		c1.9,0,3.8-0.4,5.7-0.4c1.9-0.1,3.9,0.5,5.8,0.4c1.9-0.1,3.8-0.3,5.7-0.5c1.9-0.1,3.8-0.1,5.8-0.2c1.9-0.1,3.8-0.4,5.7-0.5
		c1.9-0.1,3.8,0,5.8,0c1.9,0,3.8-1,5.8-1c1.9,0,3.8,0.8,5.7,0.9c1.8,0.1,3.6-0.2,5.4-0.1c1.8,0.1,3.6,0.4,5.4,0.4
		c1.8,0.1,3.6,0.7,5.4,0.8c1.8,0,3.6-0.4,5.4-0.4s3.6-0.3,5.4-0.3c1.8,0,3.6,0.2,5.4,0.1c1.8-0.1,3.6-0.4,5.4-0.4
		c1.8-0.1,3.6,0.2,5.4,0.1c2-0.1,3.9-0.3,5.9-0.4c2-0.1,3.9-0.7,5.9-0.7c2-0.1,3.9,0,5.9-0.1c2,0,3.9,0.2,5.9,0.2
		c2,0,3.9,0.7,5.9,0.7c2,0,3.9-0.8,5.9-0.8c2,0,3.9,0.1,5.9,0.1c2,0,3.9-0.3,5.9-0.3c2,0,3.9,0.9,5.9,1c2,0,3.9-1,5.9-0.9
		c2,0,3.9,0.9,5.9,0.9c2,0,3.9,0,5.9,0.1c2,0,3.9-0.5,5.9-0.5c2,0,3.9,0.1,5.9,0.2s3.9,1.1,5.9,1.2c2,0,3.9,0.1,5.9,0.2
		c1.8,0,3.6-0.3,5.4-0.3c1.8,0,3.6,0.4,5.4,0.5c1.8,0,3.6-0.4,5.4-0.4c1.8,0,3.6,0.7,5.4,0.7c1.8,0,3.6-0.9,5.4-0.8
		c1.8,0.1,3.6,0.2,5.4,0.3c1.8,0.1,3.6-0.3,5.4-0.2c1.8,0.1,3.6,0.7,5.4,0.8c1.9,0.1,3.8,0,5.8,0.1c1.9,0.1,3.8,0.5,5.7,0.5
		c1.9,0,3.8-0.2,5.8-0.2c1.9,0,3.8,0.2,5.8,0.2c1.9-0.1,3.8,0,5.8-0.1c1.9-0.1,3.8-0.3,5.7-0.4c1.9-0.1,3.8-0.1,5.8-0.1
		c1.9,0,3.8-0.7,5.7-0.7c1.9,0,3.8,0.5,5.7,0.5c1.9,0,3.8-0.6,5.7-0.7c1.9,0,3.8,1.1,5.7,1.1s3.8-1.1,5.7-1.1c1.9,0,3.8,0.6,5.7,0.6
		c1.9,0,3.8-0.2,5.7-0.2c1.9,0,3.8,0.3,5.7,0.3c1.9,0,3.8,0.4,5.7,0.4c1.9,0,3.8,0,5.7,0c1.9,0,3.8-0.4,5.7-0.4
		c1.9,0,3.8-0.3,5.7-0.3c1.9,0,3.8,0.9,5.7,0.9c1.9,0,3.8-1.4,5.7-1.4c1.9,0,3.8,1.2,5.7,1.2c1.9,0,3.8-0.4,5.7-0.4
		c1.9,0,3.8,0.4,5.7,0.3c1.9,0,3.8-1,5.6-1c1.9,0,3.8,1,5.6,1c1.9,0,3.8-0.5,5.7-0.4c1.9,0.1,3.8-0.2,5.6-0.1
		c1.9,0.1,3.7,1.1,5.6,1.2c1.9,0.1,3.8-0.6,5.7-0.5c1.9,0.1,3.7,0.5,5.6,0.6c1.9,0.1,3.8-0.6,5.7-0.5c2,0,4,0.2,6.1,0.2
		c2,0,4.1,0.6,6.1,0.5c2,0,4.1-0.1,6.1-0.1c2-0.1,4-1,6.1-1.1c2-0.1,4.1,0.4,6.1,0.3c2-0.1,4-0.7,6.1-0.8c2-0.1,4.1-0.3,6.1-0.4
		c2-0.1,4.1,0.8,6.1,0.8c1.9-0.1,3.7-0.6,5.6-0.7c1.9-0.1,3.8,0,5.6-0.1c1.9-0.1,3.8,0.1,5.6,0c1.9-0.1,3.7-1,5.6-1
		c1.9,0,3.8,0.7,5.6,0.7c1.9,0,3.7,0.5,5.6,0.6c1.9,0.1,3.7,0,5.6,0.1c1.9,0.2,3.7,0.7,5.5,0.9c1.8,0.2,3.6,0.2,5.4,0.3
		c1.8,0.1,3.6-0.2,5.4-0.1c1.8,0.1,3.6,0.7,5.4,0.6c1.8,0,3.6-1.3,5.4-1.3c1.8,0,3.6,0.5,5.4,0.4c1.8-0.1,3.6,0.3,5.4,0.2
		c1.8-0.1,3.6-1.2,5.4-1.3c1.8-0.1,3.6,1.1,5.4,1c1.9,0,3.8-0.5,5.6-0.5c1.9-0.1,3.8,0.2,5.7,0.1c1.9-0.1,3.7-0.6,5.6-0.7
		c1.9-0.1,3.8,0.1,5.6,0c1.9-0.1,3.8-0.2,5.6-0.2c1.9-0.1,3.8-0.6,5.6-0.7c1.9,0,3.8-0.1,5.7-0.1c1.9,0,3.8,0.6,5.7,0.7
		c1.9,0,3.8-0.5,5.7-0.4c1.9,0,3.9,0.3,5.8,0.3c1.9,0,3.9,0.4,5.8,0.4c1.9,0,3.9-0.7,5.8-0.7c1.9,0,3.9,0.8,5.8,0.9
		c1.9,0,3.9,0.7,5.8,0.7c1.9,0,3.9-0.7,5.8-0.7c1.9,0,3.9-0.2,5.8-0.2c1.9,0,3.9,0.5,5.8,0.5c1.7,0,3.5-0.4,5.2-0.4
		c1.7,0,3.5,0,5.2,0c1.7,0,3.5,0.3,5.2,0.3c1.7,0,3.5-0.9,5.2-0.9c1.7,0,3.5,0.4,5.2,0.4c1.7,0,3.4-0.4,5.2-0.4
		c1.7-0.1,3.5,0.7,5.2,0.6c1.7-0.1,3.5-0.6,5.2-0.6c1.8,0,3.5-0.2,5.2-0.1c1.8,0.1,3.4,1.2,5.1,1.5c2.1,0.4,4.2,0.2,5.6,1.2
		c1.6,1.2,2,3.3,2.9,5c0.8,1.6,2.4,3.2,2.7,5.1c0.4,1.8,0.5,3.8,0.6,5.8c0.1,1.9-0.5,3.9-0.5,5.8c0,2,0.5,4,0.6,5.7
		c0.1,2.2-0.5,4.4-0.3,6.5c0.2,2.2,1.2,4.2,1.4,6.4c0.3,3.5-3.3-0.6-4.7-1.1c-1.1-0.4,0.3,4.6,0.7,5c1,1.3,2.1,2.2,3.5,3
		c1.3,0.7,2.7,1.2,3.7,2.3c0.9,1.1,2.1,2,3.1,3c1.9,1.9,4.1,3.4,6.6,4.3c2.3,0.8,4.4,1.8,6.4,2.8c2.1,1,4.5,1.5,6.5,2.9
		C780.3,75.9,778.5,71.9,777.6,71.2z" style="fill: rgb(106, 106, 106);"></path>
</g>
</svg>
