<!--?xml version="1.0" encoding="utf-8"?-->
<!-- Generator: Adobe Illustrator 22.1.0, SVG Export Plug-In . SVG Version: 6.00 Build 0)  -->
<svg version="1.1" id="_x34_" xmlns="http://www.w3.org/2000/svg" xmlns:xlink="http://www.w3.org/1999/xlink" x="0px" y="0px" viewBox="0 0 800 545.9" style="width: 353px;" xml:space="preserve">
<style type="text/css">
	.stblack{fill:#000000;}
	.st0{fill:#FFFFFF;}
</style>
<g>
	<path class="st0" d="M56.8,308.9c23.3,51.7,78.3,68.3,78.3,68.3s-7.5,25,8.3,40.8c15.8,15.8,56.7,28.3,105.8,36.7
		c49.2,8.3,86.7-2.5,86.7-2.5s1.7,9.2,36.7,21.7c35,12.5,70,7.5,85,0.8c18.3,12.5,4.2,57.5,4.2,57.5s9.2-4.2,26.7-18.3
		c17.5-14.2,32.5-58.3,32.5-58.3l4.2-0.8c0,0,33.3,2.5,50-0.8c16.7-3.3,30-7.5,42.5-15c12.5-7.5,21.7-29.2,21.7-29.2s6.7,0,25.8-6.7
		c60.8-14.2,115-69.2,115-116.6s-37.5-71.7-37.5-71.7s8.3-24.2-3.3-43.3c-11.7-19.2-67.5-66.7-100.8-76.7s-92.5-13.3-92.5-13.3
		s-40.8-21.7-75-30c-34.2-8.3-128.3-15.8-200,11.7c-71.7,27.5-114.1,84.2-114.1,84.2s-42.5,10-71.7,32.5S33.5,257.3,56.8,308.9z"></path>
	<path class="stblack" d="M20.1,248c0.3,8.2,1.3,15,2.7,21.4c1.4,6.3,3.2,12.2,5.8,18.3c2.6,6.1,5.8,12.4,10.7,19.3c2.4,3.5,5.3,7,8.6,10.8
		c3.4,3.7,7.3,7.5,12,11.4c1,0.9,2.6,2.2,4.4,3.8c0.9,0.8,1.9,1.7,3,2.6c1.1,0.9,2.2,1.9,3.5,2.8c5,3.9,11.2,7.9,17.5,10.9
		c3.1,1.5,6.3,2.7,9.1,3.7c2.9,0.9,5.6,1.4,7.9,1.6c4.6,0.3,7.4-0.8,7.2-4c-0.5-8.6-11.8-12.6-23.1-17.7c-5.7-2.4-11.6-4.9-16.3-7.3
		c-1.2-0.6-2.3-1.2-3.3-1.7c-1-0.6-1.9-1.1-2.8-1.5c-1.6-1-2.8-1.8-3.4-2.3c-2.6-2.3-7.8-6.9-13-13.5c-1.3-1.7-2.7-3.4-3.9-5.2
		c-1.3-1.8-2.5-3.8-3.7-5.8c-2.3-4.1-4.5-8.4-6.3-12.7c-3.5-8.7-5.5-17.6-6.3-24.2c-0.5-3.3-0.6-6-0.8-7.9c-0.1-1.9-0.1-3-0.1-3
		s0-0.3,0-0.9c0-0.6-0.1-1.4,0-2.5c0-2.2,0-5.4,0.2-9.3c0.5-7.7,1.8-18.4,4.8-29.2c1.5-5.4,3.4-10.9,5.7-16c2.3-5.1,5-10,7.9-14.3
		c5.7-8.6,12.1-14.9,16-18.4c6.3-5.5,13.1-9.6,19.6-12.5c6.5-3,12.6-4.9,17.6-6.5c5.1-1.7,9.2-2.9,11.9-4.9c2.8-1.8,4.2-4.3,3.9-7.8
		c-0.2-2.1-1.5-3.1-4.1-3.3c-0.6-0.1-1.4-0.1-2.1,0c-0.8,0.1-1.6,0.2-2.6,0.4c-0.9,0.2-1.9,0.4-3,0.6c-1.1,0.3-2.2,0.6-3.4,1
		c-9.5,3.1-23,9.5-38,20.9c-8.2,6.2-16.3,14.3-22.7,23.7c-6.5,9.3-11.4,19.9-14.6,30.1C20.3,219.3,19.7,238.1,20.1,248z"></path>
	<path class="stblack" d="M513.2,45.6c-2.5-2-6.6-4.4-12.4-6.7C489.3,34,471.5,28.5,448.5,23c-12.5-2.9-26.4-5.5-40.5-7.1
		c-14.1-1.6-28.4-2.3-41.9-2.3c-6.7,0.1-13.3,0.2-19.5,0.6c-6.2,0.3-12,0.9-17.4,1.4c-2.7,0.2-5.3,0.6-7.7,0.9
		c-2.4,0.3-4.8,0.6-6.9,0.9c-4.3,0.7-8.1,1.4-11.1,1.9c-10.1,1.9-18.5,3.9-26.4,6c-1,0.3-2,0.5-2.9,0.8c-1,0.3-1.9,0.6-2.9,0.9
		c-1.9,0.6-3.8,1.1-5.7,1.7c-3.8,1.1-7.5,2.4-11.4,3.7c-1.9,0.7-3.9,1.3-5.9,2.1c-2,0.8-4.1,1.6-6.2,2.4c-2.1,0.9-4.3,1.6-6.6,2.6
		c-2.2,1-4.6,2-7,3c-1.2,0.5-2.4,1.1-3.7,1.6c-1.2,0.6-2.5,1.2-3.8,1.8c-2.6,1.3-5.3,2.5-8.1,4c-2.8,1.5-5.7,3.1-8.7,4.7
		c-1.5,0.8-3,1.7-4.6,2.6c-1.6,0.9-3.2,1.9-4.8,2.8c-0.7,0.4-1.7,1-2.7,1.5c-1.1,0.6-2.3,1.3-3.6,2.1c-1.3,0.8-2.8,1.6-4.4,2.5
		c-1.6,0.9-3.2,1.8-4.9,2.9c-6.8,4.2-14.5,9.4-21.2,15.1c-1.7,1.4-3.3,2.8-4.8,4.2c-1.6,1.4-2.9,2.9-4.3,4.3
		c-1.3,1.4-2.5,2.8-3.6,4.1c-1.1,1.3-2,2.7-2.8,3.9c-3.1,4.9-3.8,8.4-0.7,9.4c2.1,0.7,4.4,0.6,6.8-0.3c1.2-0.4,2.5-1,3.7-1.7
		c0.6-0.4,1.3-0.8,1.9-1.2c0.7-0.4,1.4-0.8,2-1.3c5.4-3.8,11.4-9.3,17.6-14.8c12.2-11.1,25.3-22.5,29.1-24.6c1-0.6,2.2-1.3,3.7-2.2
		c1.5-0.8,3.2-1.7,5-2.7c1.9-1,3.9-2.1,6.1-3.3c2.2-1.1,4.6-2.2,7.1-3.5c1.3-0.6,2.5-1.2,3.8-1.9c1.3-0.6,2.7-1.2,4-1.8
		c2.7-1.2,5.5-2.5,8.4-3.6c2.9-1.1,5.8-2.3,8.8-3.4l2.2-0.9l2.2-0.8c1.5-0.5,3-1,4.5-1.5c1.5-0.5,3-1,4.4-1.5
		c1.5-0.5,2.9-0.9,4.4-1.4c2.9-0.9,5.7-1.7,8.4-2.5c2.7-0.7,5.4-1.4,7.8-2c2.5-0.6,4.8-1.3,7-1.7c4.3-0.9,7.9-1.7,10.3-2.2
		c2.5-0.4,3.9-0.7,3.9-0.7s1.6-0.3,4.5-0.8c1.4-0.2,3.2-0.6,5.2-0.9c2-0.3,4.3-0.6,6.9-0.9c2.5-0.3,5.3-0.8,8.3-1
		c3-0.3,6.1-0.6,9.4-0.9c3.3-0.3,6.7-0.4,10.3-0.6c3.5-0.3,7.2-0.3,10.9-0.4c14.8-0.3,30.5,0.4,44.2,1.9c3.4,0.3,6.7,0.8,9.8,1.2
		c1.6,0.2,3.1,0.4,4.6,0.6c1.5,0.2,2.9,0.5,4.3,0.7c2.7,0.5,5.3,0.9,7.5,1.3c2.3,0.4,4.3,0.9,6,1.2c2.7,0.6,5.4,1.1,8,1.8
		c2.6,0.7,5.1,1.4,7.6,2.1c1.2,0.4,2.5,0.7,3.7,1.1c1.2,0.4,2.4,0.8,3.6,1.2c2.3,0.8,4.6,1.6,6.9,2.4c4.4,1.7,8.5,3.5,12.4,5
		c3.8,1.7,7.4,3.3,10.7,4.6c6.4,3,11.9,5,16,5.8c4.2,0.7,7.4,0,9.4-3C516.4,49.4,515.6,47.6,513.2,45.6z"></path>
	<path class="stblack" d="M640.3,86.1c1.4,0.7,6.1,3.2,6.1,3.2s-0.1,0-0.2-0.1c-1.6-0.8-2.9-1.5-3.8-2C641.8,86.9,641.1,86.5,640.3,86.1z"></path>
	<path class="stblack" d="M648.3,81.7c0.1,0,0.2,0.1,0.2,0.1C646.9,81,646.3,80.7,648.3,81.7z"></path>
	<path class="stblack" d="M649.8,82.5c-0.1-0.1-0.2-0.1-0.3-0.2c1.2,0.6,2.9,1.5,5.1,2.7c0.4,0.2,0.7,0.4,0.9,0.5C654,84.8,651.6,83.5,649.8,82.5z"></path>
	<path class="stblack" d="M655.5,85.6c0.4,0.2,0.8,0.5,1.1,0.6C657.2,86.5,657,86.4,655.5,85.6z"></path>
	<path class="stblack" d="M613.7,66c-3.8-1.4-11.2-4.5-20.4-7.2c-9.2-2.7-20.2-5-30.8-5.7c-10.6-0.7-20.6,0.3-27.3,2.2c-3.3,0.9-5.9,2.1-7.3,3.2
		c-1.4,1.1-1.7,2.2-0.7,3.2c2.7,2.7,8.7,3.2,16.4,3.4c7.8,0.2,17.4,0.3,27.2,1.1c9.8,0.7,19.7,2.3,27.8,4c8.1,1.7,14.3,3.6,16.7,4.5
		c10.3,4.1,18,7.9,23.2,10.5c0.6,0.3,1.2,0.6,1.8,0.9c0,0-0.1,0-0.1-0.1c-0.6-0.3-0.3-0.1,2.1,1.1c0.1,0,0.1,0.1,0.2,0.1
		c2.1,1.1,3.4,1.8,3.8,2c2.5,1.3,5.8,3.1,10.1,5.6c5.7,3.3,10.9,7,15.2,11.1c4.4,4.3,8.7,8.7,12.6,12.8c3.9,4.1,7.5,8.2,10.6,12
		c1.6,1.9,3,3.8,4.4,5.6c1.3,1.9,2.6,3.6,3.7,5.3c2.3,3.4,4.1,6.6,5.7,9.4c0.7,1.4,1.4,2.7,2,4c0.5,1.2,1.1,2.4,1.7,3.4
		c0.9,2.1,2,3.8,2.9,5.1c1,1.3,2.2,2.1,3.6,2.3c0.9,0.1,1.5-0.3,2-1.2c0.2-0.5,0.4-1.1,0.6-1.9c0.1-0.8,0.3-1.7,0.2-2.7
		c0-4.2-1.7-10.4-5.6-17.3c-3.9-6.9-9.9-14.4-17.6-22.2c-3.8-4-8.1-8-12.7-12.2c-2.3-2.1-4.6-4.3-7.1-6.5c-1.2-1.1-2.5-2.4-3.9-3.5
		c-1.4-1.2-2.8-2.3-4.3-3.4c-6.5-4.7-11.5-7.4-15.1-9.5c-0.3-0.2-0.5-0.3-0.8-0.4c-1.1-0.6-2.6-1.4-4.6-2.5c-3.3-1.7-5.9-3.1-8-4.1
		c-0.2-0.1-0.5-0.3-0.9-0.4c-0.4-0.2-0.8-0.4-1.3-0.6c0.1,0,0.1,0.1,0.2,0.1c0.7,0.4,1.4,0.7,1.9,0.9c-3.1-1.6-5-2.5-6-2.9
		c-0.3-0.1-0.6-0.3-0.8-0.4c0.1,0,0.2,0.1,0.3,0.2c-0.2-0.1-0.3-0.2-0.4-0.2c-0.7-0.3-1.5-0.7-2.3-1.1
		C628.3,71.9,622.2,69.2,613.7,66z"></path>
	<path class="stblack" d="M649.4,82.3c-0.4-0.2-0.7-0.3-0.9-0.5C648.8,82,649.1,82.1,649.4,82.3z"></path>
	<path class="stblack" d="M634.9,75C635,75,635,75,634.9,75C635,75.1,635,75.1,634.9,75C635,75.1,635,75,634.9,75z"></path>
	<path class="stblack" d="M641.8,78.4C641.9,78.4,641.9,78.4,641.8,78.4C643,79,642.7,78.9,641.8,78.4z"></path>
	<path class="stblack" d="M725.3,322.1c0,0,0.5-0.5,1.3-1.5c-0.2,0.2-0.4,0.4-0.6,0.6C725.7,321.7,725.3,322.1,725.3,322.1z"></path>
	<path class="stblack" d="M739.2,316.9C737.5,319.3,738,318.6,739.2,316.9L739.2,316.9z"></path>
	<path class="stblack" d="M727.1,331.3c0.1-0.1,0.2-0.2,0.3-0.3c-0.2,0.2-0.4,0.4-0.6,0.6C726.9,331.5,727,331.4,727.1,331.3z"></path>
	<path class="stblack" d="M743.2,311c0.3-0.5,0.6-0.9,0.8-1.3C743.7,310.1,743.5,310.5,743.2,311C743.2,310.9,743.2,311,743.2,311z"></path>
	<path class="stblack" d="M741.7,313.3c-0.2,0.2-0.3,0.5-0.5,0.7c-0.2,0.2-0.3,0.5-0.5,0.7c-0.1,0.1-0.2,0.3-0.3,0.4c0.5-0.7,1-1.5,1.5-2.2
		c0,0.1-0.1,0.1-0.1,0.2C741.7,313.2,741.7,313.3,741.7,313.3z"></path>
	<path class="stblack" d="M727.3,319.8c-0.1,0.1-0.2,0.3-0.3,0.4c0.1-0.1,0.2-0.2,0.2-0.3C727.3,319.9,727.3,319.9,727.3,319.8z"></path>
	<path class="stblack" d="M733.6,324.1c-0.1,0.1-0.2,0.2-0.3,0.4c0,0-0.1,0.1-0.1,0.1C733.4,324.4,733.5,324.2,733.6,324.1z"></path>
	<path class="stblack" d="M733.8,323.9c0,0-0.1,0.1-0.2,0.2C734,323.6,734,323.6,733.8,323.9z"></path>
	<path class="stblack" d="M731.2,326.9c0.5-0.5,0.9-1,1.2-1.4C732,326,731.6,326.5,731.2,326.9C731.1,326.9,731.1,326.9,731.2,326.9z"></path>
	<path class="stblack" d="M728,330.4c0.2-0.2,0.4-0.5,0.6-0.7c-0.4,0.4-0.8,0.8-1.2,1.2C727.6,330.8,727.8,330.6,728,330.4z"></path>
	<path class="stblack" d="M739.3,316.7c0.4-0.6,0.8-1.1,1.1-1.6c0,0,0,0,0,0c-0.3,0.4-0.6,0.8-0.8,1.2c0.3-0.5,0.7-1,1.1-1.6
		c0.2-0.2,0.3-0.5,0.5-0.7c0.2-0.3,0.4-0.6,0.6-0.9c0.1-0.1,0.1-0.2,0.2-0.3c0,0,0,0,0,0c0.1-0.1,0.1-0.2,0.2-0.3c0,0,0,0,0-0.1
		c0.4-0.6,0.7-1.1,1-1.6c0,0-0.1,0.1-0.1,0.1c0-0.1,0.1-0.1,0.1-0.2c0.2-0.3,0.4-0.6,0.5-0.9c0.2-0.3,0.3-0.5,0.4-0.6
		c-0.1,0.1-0.1,0.2-0.2,0.3c0.7-1.1,1.5-2.4,2.3-3.8c3.1-5.7,7.2-13.8,10.3-25.9c0.4-1.3,0.7-3,1.1-5c0.2-1,0.4-2,0.7-3.1
		c0.2-1.1,0.3-2.3,0.5-3.6c0.2-1.2,0.3-2.6,0.5-3.9c0.1-1.4,0.2-2.8,0.2-4.3c0.3-2.9,0-6.1,0-9.3c-0.8-13.1-5.4-28.2-13.7-40.2
		c-4.1-6-9-11.1-14-15.2c-5-4-10.1-6.9-14.4-8.7c-2.2-0.8-4.1-1.5-5.9-1.9c-0.9-0.2-1.7-0.4-2.4-0.5c-0.7-0.1-1.4-0.1-2-0.1
		c-2.3,0-3.3,0.7-2.8,2.2c0.7,2,2.7,4,5.5,6.3c2.7,2.4,6.3,5,10,8.2c3.8,3.2,7.8,7,11.5,11.5c3.7,4.5,7.3,9.6,10.1,15.2l2,4.2
		c0.4,0.7,0.6,1.4,0.9,2.2l0.8,2.2c0.3,0.7,0.6,1.5,0.8,2.2c0.3,0.7,0.4,1.5,0.7,2.2c0.4,1.5,0.9,2.9,1.3,4.4c0.6,3,1.3,5.9,1.6,8.7
		c0.1,1.4,0.4,2.8,0.5,4.2c0.1,1.4,0.1,2.7,0.2,4.1c0,0.7,0.1,1.3,0.1,2c0,0.6-0.1,1.3-0.1,1.9c0,1.2-0.1,2.5-0.1,3.6
		c-0.2,2.3-0.5,4.4-0.7,6.3c-0.2,1.9-0.7,3.5-1,4.9c-0.3,1.4-0.5,2.5-0.8,3.3c-4.5,13.6-10.6,23.2-15,29.2c-0.7,1-1.4,1.8-2,2.6
		c0.2-0.3,0.4-0.5,0.5-0.7c0.4-0.5,0.3-0.4-0.6,0.7c-0.3,0.4-0.6,0.8-0.9,1.2c-0.1,0.2-0.2,0.3-0.4,0.5c-0.5,0.6-1.1,1.4-1.9,2.4
		c0,0,0-0.1,0.1-0.1c0,0-0.1,0.1-0.1,0.1c-0.1,0.1-0.2,0.2-0.3,0.3c0,0,0,0,0,0c0,0,0,0,0,0c-0.1,0.1-0.2,0.2-0.3,0.3c0,0,0,0,0,0
		c-0.7,0.8-1.5,1.7-2.4,2.7c-0.6,0.6-1.2,1.3-1.8,2c-0.7,0.7-1.4,1.4-2.2,2.2c-1.6,1.5-3.3,3.3-5.4,5.1c-1.6,1.4-3.2,2.9-4.9,4.2
		c-1.7,1.3-3.4,2.7-5,4c-3.4,2.5-6.8,4.9-10.3,7.1c-3.4,2.3-6.9,4.2-10.3,6.1c-1.7,0.9-3.5,1.8-5.2,2.7c-0.9,0.4-1.7,0.9-2.5,1.3
		c-0.9,0.4-1.7,0.8-2.6,1.2c-13.5,6.4-26.2,10.9-37,14.4c-21.6,6.9-35.4,10.4-35.4,16.3c0,1.7,2.4,2.2,7.3,1.8
		c4.9-0.5,12.1-2.1,21.5-4.9c9.4-2.9,20.9-7.1,34-13.1c6.5-3.1,13.5-6.5,20.7-10.7c7.2-4.2,14.8-8.9,22.3-14.6
		c2.1-1.5,3.9-3.1,5.7-4.4c0.9-0.7,1.7-1.4,2.5-2c0.8-0.7,1.5-1.4,2.3-2c1.4-1.3,2.8-2.5,4-3.6c0.7-0.7,1.4-1.3,2-2c0,0,0,0-0.1,0.1
		c-0.6,0.6-0.6,0.5,0.5-0.5c0.4-0.4,1.1-1,1.9-1.9c0.1-0.1,0.3-0.3,0.4-0.4c-0.1,0.1-0.2,0.2-0.3,0.3c0.6-0.6,1.3-1.3,2.1-2.2
		c0.4-0.5,0.8-0.9,1.2-1.3c-0.4,0.4-0.8,0.9-1.2,1.3c0.7-0.8,1.5-1.6,2.4-2.6c0,0,0.1-0.1,0.1-0.1c-0.1,0.1-0.2,0.2-0.2,0.3
		c0.6-0.7,1.1-1.3,1.6-1.7c0,0,0,0,0,0c0.1-0.1,0.2-0.2,0.3-0.3c0,0,0,0,0,0c0,0,0,0,0,0c0.1-0.1,0.2-0.2,0.3-0.3
		c0.1-0.1,0.1-0.2,0.2-0.3c-0.1,0.2-0.3,0.3-0.4,0.5c0.2-0.2,0.4-0.4,0.5-0.6c0.5-0.6,0.9-1.2,1.4-1.7c1.1-1.4,2.1-2.6,3-3.7
		C738.3,318.2,738.8,317.4,739.3,316.7c0,0.1-0.1,0.1-0.1,0.1C739.2,316.8,739.3,316.8,739.3,316.7z"></path>
	<path class="stblack" d="M728.6,329.8C728.6,329.7,728.6,329.7,728.6,329.8C728.6,329.7,728.6,329.7,728.6,329.8
		C728.6,329.7,728.6,329.7,728.6,329.8z"></path>
	<path class="stblack" d="M561.8,430.7c0.1,0,0.1,0,0.2,0c-0.2,0-0.4,0.1-0.6,0.1C561.5,430.7,561.6,430.7,561.8,430.7z"></path>
	<path class="stblack" d="M558.7,423.5C558.7,423.5,558.7,423.5,558.7,423.5C558.7,423.5,558.7,423.5,558.7,423.5
		C558.7,423.5,558.7,423.5,558.7,423.5z"></path>
	<path class="stblack" d="M565.3,429.9C565.3,429.9,565.3,430,565.3,429.9c-0.1,0-0.2,0-0.2,0C565.2,430,565.3,430,565.3,429.9z"></path>
	<path class="stblack" d="M559,423.5c-0.1,0-0.2,0-0.3,0.1C558.8,423.5,558.9,423.5,559,423.5C559,423.5,559,423.5,559,423.5z"></path>
	<path class="stblack" d="M558.3,423.6c-1.1,0.2-2.9,0.5-2.9,0.5S556.4,423.9,558.3,423.6z"></path>
	<path class="stblack" d="M558.3,423.6c0.1,0,0.2,0,0.3-0.1C558.5,423.6,558.4,423.6,558.3,423.6z"></path>
	<path class="stblack" d="M559,423.5C559.1,423.4,559.1,423.4,559,423.5L559,423.5z"></path>
	<path class="stblack" d="M556.3,431.6c-1.2,0.2-2.6,0.4-3.3,0.5C554.4,431.9,555.5,431.7,556.3,431.6z"></path>
	<path class="stblack" d="M552.9,432c-0.1,0-0.3,0-0.4,0.1C552.2,432.1,552.4,432.1,552.9,432z"></path>
	<polygon points="556.5,431.5 556.5,431.5 556.5,431.5 	"></polygon>
	<path class="stblack" d="M556.6,431.5c1.4-0.2,2.4-0.4,0.9-0.1c-0.2,0-0.4,0.1-0.6,0.1C556.8,431.5,556.6,431.5,556.6,431.5
		C556.5,431.5,556.6,431.5,556.6,431.5z"></path>
	<path class="stblack" d="M562,430.6c0.1,0,0.3-0.1,0.4-0.1c0.1,0,0.1,0,0.2,0c-0.1,0-0.2,0-0.3,0.1C562.2,430.6,562.1,430.6,562,430.6z"></path>
	<path class="stblack" d="M556.3,431.6c0.1,0,0.1,0,0.2,0c0,0-0.1,0-0.1,0C556.3,431.6,556.3,431.6,556.3,431.6z"></path>
	<path class="stblack" d="M561.4,430.7C560.6,430.9,560.8,430.8,561.4,430.7L561.4,430.7z"></path>
	<path class="stblack" d="M530,425.3c-6.1-0.3-11.6-0.4-16-0.4c-4.4,0-7.9,0-10.6,0.8c-2.6,0.8-4.3,2.4-4.8,5.2c-0.6,3.3,3.3,4.5,11.3,4.6
		c4,0,9-0.5,14.5-1c5.5-0.5,12.2-0.9,19.6-1.5c3.6-0.3,6.4-0.6,8.5-0.9c0.4-0.1,1.6-0.2,3.9-0.5c0.2,0,0.4-0.1,0.5-0.1
		c2.3-0.4,4.1-0.7,5.4-0.9c0.1,0,0.3-0.1,0.5-0.1c-0.1,0-0.1,0-0.2,0c0.7-0.1,1.2-0.2,1.6-0.3c0.3-0.1,0.6-0.1,0.9-0.2
		c-0.1,0-0.1,0-0.2,0c0.2,0,0.3-0.1,0.4-0.1c0.4-0.1,0.9-0.2,1.4-0.3c2.5-0.6,6-1.4,10.7-2.9c2.1-0.7,6.3-1.8,11.2-3.7
		c4.9-1.9,10.4-4.9,15-8.9c4.6-3.9,8-9.2,8.9-13.4c0.2-1,0.3-2,0.3-2.8c0-0.8-0.2-1.6-0.5-2.1c-0.5-1.1-1.4-1.6-2.7-1.5
		c-0.9,0.1-1.7,0.3-2.4,0.6c-0.7,0.3-1.4,0.7-2.1,1.1c-0.7,0.4-1.3,0.9-2,1.4c-0.3,0.3-0.6,0.5-0.9,0.8c-0.3,0.3-0.7,0.6-1,0.9
		c-0.6,0.6-1.4,1.2-2,2c-0.7,0.7-1.4,1.4-2.2,2.1c-0.7,0.8-1.6,1.5-2.4,2.3c-0.9,0.7-1.7,1.6-2.6,2.3c-3.6,3.2-7.7,6.1-11.3,8.4
		c-3.6,2.2-6.6,3.8-7.8,4.2c-5.5,1.7-9.8,2.5-12.8,3.1c-0.4,0.1-0.8,0.2-1.2,0.2c-0.9,0.2-3.5,0.6-9.2,1.3
		C542.6,425.6,536,425.5,530,425.3z"></path>
	<path class="stblack" d="M115,364.2c-0.1-1.5-0.7-2.5-2.1-2.5c-1.8,0.1-4.1,1.4-5.8,4.3c-1.8,2.8-2.8,7.2-2.4,12.2c0.3,2.5,0.8,5,1.8,7.6
		c1,2.5,2.3,5,3.8,7.4c3.2,4.8,7.4,8.8,12,12.2c9.1,6.7,19.3,10.8,27.6,13.7c4.2,1.3,7.9,2.5,10.9,3.4c3,0.8,5.3,1.4,6.5,1.9
		c1.4,0.5,2.7,0.9,4,1.3c1.3,0.4,2.6,0.8,3.8,1.1c1.2,0.4,2.4,0.7,3.6,1c1.2,0.3,2.3,0.6,3.3,0.8c2.1,0.5,4.1,1,5.9,1.5
		c1.8,0.4,3.5,0.7,4.9,1c1,0.2,1.8,0.4,2.6,0.5c-0.3-0.1-0.5-0.1-0.7-0.1c-0.5-0.1-0.4-0.1,0.7,0.1c0.7,0.1,1.3,0.3,1.9,0.4
		c0.3,0.1,0.6,0.1,1,0.2c-0.1,0-0.3-0.1-0.4-0.1c0.3,0.1,0.5,0.1,0.8,0.1c0.2,0,0.5,0.1,0.7,0.1c-0.1,0-0.1,0-0.2,0
		c0.1,0,0.2,0,0.3,0c0.4,0.1,0.7,0.1,1,0.2c0.8,0.1,1.6,0.2,2.5,0.4c2.7,0.4,6.1,1,10.5,1.5c13.7,1.6,26.8,2.4,38.6,2.5
		c11.9,0.1,22.6-0.7,31.5-1.9c8.9-1.4,16.1-3.2,20.9-5.4c4.8-2.3,7.2-4.8,6.8-7.6c-0.2-1.7-2.2-2.2-5.8-1.8c-3.6,0.5-8.9,1.6-16,3.1
		c-1.8,0.3-3.7,0.7-5.6,1.1c-1,0.2-2,0.4-3.1,0.6c-1.1,0.2-2.1,0.3-3.2,0.5c-2.2,0.3-4.5,0.8-7,1.1c-2.4,0.3-5,0.6-7.6,0.9
		c-10.6,1-23,1.6-36.9,0.6c-1.9-0.1-3.7-0.3-5.3-0.4c-1.6-0.2-3.2-0.4-4.6-0.5c-2.7-0.3-5-0.5-7-0.8c1.7,0.3,2.2,0.3-0.1,0
		c-0.1,0-0.1,0-0.2,0c-2.9-0.5-4.9-0.8-6.4-1c0.1,0,0.1,0,0.2,0c0,0,0,0,0,0c-0.6-0.1-1.1-0.2-1.7-0.3c-0.2,0-0.4-0.1-0.5-0.1
		c-2-0.3-3.7-0.7-5.2-1c-0.4-0.1-0.8-0.2-1.1-0.2c1,0.2,1,0.2-1-0.2c-0.3-0.1-0.6-0.1-1-0.2c-0.4-0.1-0.7-0.1-1-0.2
		c-0.3-0.1-0.7-0.1-1.1-0.2c-2.3-0.6-3.3-0.8-3.4-0.8c0.1,0,0.2,0.1,0.4,0.1c-0.9-0.2-1.8-0.4-2.8-0.7c-1.1-0.3-2.4-0.6-3.8-0.9
		c-1.4-0.4-2.8-0.8-4.4-1.3c-1.6-0.5-3.3-1-5.2-1.5c-1.8-0.6-3.8-1.3-5.9-2c-0.9-0.3-2.1-0.7-3.4-1.3c-1.3-0.6-2.8-1.2-4.4-2
		c-3.3-1.4-7.1-3.3-11.1-5.5c-8-4.4-16.8-10.2-22.7-17c-3-3.3-5.2-6.9-6.5-10.3c-0.7-1.7-1.2-3.3-1.5-4.8c-0.3-1.5-0.5-2.9-0.6-4.2
		C114.9,367.9,115.2,365.7,115,364.2z M201.3,424.8c-0.1,0-0.1,0-0.2,0C201.1,424.8,201.2,424.8,201.3,424.8z M192.4,423.1
		c0,0,0.1,0,0.1,0c-0.1,0-0.3-0.1-0.4-0.1C192.2,423.1,192.3,423.1,192.4,423.1z M191.2,422.9c-0.1,0-0.3-0.1-0.4-0.1
		c-0.1,0-0.2,0-0.3-0.1C190.7,422.8,191,422.8,191.2,422.9z M190.2,422.6c-0.1,0-0.2-0.1-0.3-0.1c0.2,0,0.3,0.1,0.5,0.1
		C190.3,422.7,190.3,422.7,190.2,422.6z M188.6,422.3C188.6,422.3,188.6,422.3,188.6,422.3C188.6,422.2,188.6,422.2,188.6,422.3
		C188.6,422.2,188.6,422.2,188.6,422.3z"></path>
	<path class="stblack" d="M209.4,426.1C209.4,426.1,209.4,426.1,209.4,426.1c-1.5-0.2-4.2-0.7-6.3-1c0.1,0,0.1,0,0.2,0
		C206.2,425.6,208.2,425.9,209.4,426.1z"></path>
	<path class="stblack" d="M198.5,432c0.1,0,0.3,0.1,0.4,0.1c0.2,0,0.3,0.1,0.5,0.1c-0.2,0-0.3-0.1-0.5-0.1C198.8,432.1,198.7,432.1,198.5,432z"></path>
	<path class="stblack" d="M369.7,457.7C369.8,457.8,369.8,457.8,369.7,457.7C369.8,457.8,369.8,457.7,369.7,457.7
		C369.7,457.7,369.7,457.7,369.7,457.7z"></path>
	<path class="stblack" d="M367.3,449.9C367.3,449.9,367.4,449.9,367.3,449.9c0.2,0,0.4,0,0.5,0.1c0,0,0,0,0,0c0.1,0,0.1,0,0.2,0
		c-0.8-0.1-1.5-0.2-1.9-0.2c0.2,0,0.4,0.1,0.7,0.1C367,449.8,367.2,449.9,367.3,449.9z"></path>
	<path class="stblack" d="M437.3,483.7c0,0,0-0.1,0-0.2c0-0.1,0-0.1,0-0.2C437.3,483.5,437.3,483.7,437.3,483.7z"></path>
	<path class="stblack" d="M444.8,480.1c0-0.1,0-0.3,0-0.4c0-0.1,0-0.2,0-0.4C444.7,479.5,444.7,479.8,444.8,480.1
		C444.8,480.1,444.8,480.1,444.8,480.1z"></path>
	<path class="stblack" d="M444.8,482.9c0-0.1,0-0.3,0-0.3C444.8,482.6,444.8,482.7,444.8,482.9z"></path>
	<path class="stblack" d="M444.8,482.6C444.8,482.5,444.8,482.5,444.8,482.6L444.8,482.6z"></path>
	<path class="stblack" d="M444.8,480.2C444.8,481,444.8,480.8,444.8,480.2L444.8,480.2z"></path>
	<path class="stblack" d="M444.8,483.8c0,0.1,0,0.3,0,0.4c0,0.1,0,0.2,0,0.3c0-0.3,0-0.6,0-0.9c0-0.2,0-0.4,0-0.6c0,0.2,0,0.4,0,0.6
		C444.8,483.7,444.8,483.7,444.8,483.8C444.8,483.7,444.8,483.8,444.8,483.8z"></path>
	<path class="stblack" d="M444.8,480.1L444.8,480.1c0,0,0,0.1,0,0.1C444.8,480.2,444.8,480.2,444.8,480.1z"></path>
	<path class="stblack" d="M437.2,481.3C437.2,481.2,437.2,481.2,437.2,481.3L437.2,481.3z"></path>
	<path class="stblack" d="M444.8,484.9c0,0.4,0,0.7,0,1C444.8,485.6,444.8,485.3,444.8,484.9z"></path>
	<path class="stblack" d="M444.8,482.9c0,0.1,0,0.1,0,0.2c0,0,0,0,0,0C444.8,483,444.8,482.9,444.8,482.9z"></path>
	<path class="stblack" d="M444.8,486.4c0-0.1,0-0.3,0-0.5c0,0.1,0,0.3,0,0.4C444.8,486.3,444.8,486.4,444.8,486.4z"></path>
	<path class="stblack" d="M444.8,486.4C444.8,486.4,444.8,486.4,444.8,486.4C444.7,486.6,444.7,486.6,444.8,486.4z"></path>
	<path class="stblack" d="M444.8,484.8C444.8,484.8,444.8,484.8,444.8,484.8C444.8,484.9,444.8,484.8,444.8,484.8z"></path>
	<path class="stblack" d="M444.8,484.5c0,0.1,0,0.2,0,0.3C444.8,484.7,444.8,484.6,444.8,484.5z"></path>
	<path class="stblack" d="M437.3,482.1c0-0.4,0-0.7,0-0.8c0,0,0,0,0,0c0,0.2,0,0.6,0,1C437.3,482.3,437.3,482.2,437.3,482.1
		C437.3,482.1,437.3,482.1,437.3,482.1z"></path>
	<path class="stblack" d="M460.2,486.9c-0.1,0.1-0.1,0.1-0.2,0.2c0,0,0,0,0,0C460.1,487,460.2,486.9,460.2,486.9z"></path>
	<path class="stblack" d="M470.3,487.6c0.9-1,1.9-2.1,3.1-3.4c0.6-0.7,1.3-1.4,2-2.2c0.6-0.8,1.3-1.7,2.1-2.7c0.7-0.9,1.8-2,3-3.6
		c1.2-1.6,2.7-3.4,4.2-5.5c1.4-2.2,3-4.5,4.4-7c0.6-1.3,1.3-2.6,1.9-3.9c0.3-0.7,0.6-1.3,0.9-2c0.3-0.7,0.5-1.4,0.8-2
		c0.9-2.7,1.9-5.3,2.2-7.9c0.4-2.5,0.7-4.8,0.5-6.7c-0.4-3.8-1.6-5.9-4.1-5.3c-1.7,0.4-3.1,1.3-4.2,2.5c-1.2,1.2-1.9,2.8-2.9,4.6
		c-0.4,0.9-0.8,1.9-1.2,2.9c-0.2,0.5-0.3,1-0.5,1.5c-0.2,0.5-0.4,1-0.6,1.6c-0.4,1.1-0.8,2.2-1.1,3.3c-0.3,1.2-0.9,2.3-1.2,3.4
		c-0.4,1.2-0.8,2.3-1.2,3.5c-0.5,1.1-0.9,2.3-1.4,3.4c-0.8,2.3-1.8,4.4-2.7,6.3c-0.4,1-0.8,1.9-1.2,2.7c-0.4,0.8-0.9,1.6-1.2,2.2
		c-0.7,1.3-1.3,2.3-1.7,2.8c-1.8,2.2-3.5,4-5,5.6c-1.5,1.6-2.9,2.8-3.9,3.8c-0.3,0.3-0.6,0.6-0.9,0.9c0.1-0.1,0.1-0.1,0.2-0.2
		c-0.1,0.1-0.2,0.2-0.4,0.3c-0.4,0.4-0.8,0.7-1.1,1c0.2-0.2,0.4-0.4,0.6-0.5c-0.3,0.3-0.7,0.6-1.2,1c0,0-0.1,0-0.1,0.1
		c0,0,0.1,0,0.1-0.1c-1.1,1-2.8,2.3-5.1,4.2c-3.7,2.8-7.4,5.2-11.1,7.2c0.8-2.4,1.4-4.9,1.9-7.6c0.5-2.9,0.6-5,0.7-6.5
		c0-0.7,0-1.3,0-1.7c0-0.1,0-0.3,0-0.4c0,0,0-0.1,0-0.1c0-1.6,0-2.7-0.1-3.6c0-0.3,0-0.7-0.1-1.2c0,0.1,0,0.3,0,0.4
		c0-0.3,0-0.6,0-0.8c-0.1-1.7-0.3-4.6-1.1-9c-0.2-1.4-0.4-4.3-0.9-7.7c-0.5-3.4-1.4-7.3-2.7-10.9c-1.3-3.5-3.1-6.6-5-8.3
		c-1.9-1.7-3.8-2.1-5.6-0.4c-1.8,1.6-2.6,3.4-2.8,5.3c-0.4-0.1-0.9-0.1-1.4-0.1c-1.8,0.1-4.1,0.8-7.5,1.5c-3.3,0.8-7.6,1.6-13,2.1
		c-5.3,0.5-11.6,0.6-18.8,0.3c-3.4-0.2-6-0.3-8-0.5c-0.3,0-1.3-0.1-3.6-0.3c-0.4,0-0.7-0.1-0.9-0.1c-1.6-0.1-2.9-0.3-4-0.4
		c0,0-0.1,0-0.1,0c-0.2,0-0.4,0-0.6-0.1c-0.2,0-0.5,0-0.7-0.1c0,0,0,0,0.1,0c-0.1,0-0.2,0-0.3,0c0,0,0,0,0,0c-0.2,0-0.3,0-0.5-0.1
		c0,0,0,0-0.1,0c-0.2,0-0.3,0-0.5-0.1c-0.3,0-0.6-0.1-0.9-0.1c0.1,0,0.1,0,0.2,0c-0.2,0-0.3,0-0.4-0.1c-0.4-0.1-0.8-0.1-1.3-0.2
		c-2.4-0.3-5.6-0.8-10-1.8c-1.9-0.4-5.6-1.7-9.8-3.5c-4.1-1.8-8.7-4.4-12.5-7c-1.9-1.3-3.7-2.6-5.2-3.8c-1.5-1.2-2.9-2.3-4-3.1
		c-1.2-0.8-2.2-1.4-3.2-1.7c-1-0.2-2,0-2.9,0.9c-1.2,1.2-1.8,2.8-1.7,4.7c0.1,1.9,0.9,4,2.2,6.1c1.4,2,3.3,4,5.5,5.8
		c2.3,1.7,4.8,3.2,7.5,4.4c5.3,2.4,11,3.6,15.6,4.3c4.6,0.6,8.1,0.7,9.4,1c5.8,1.2,10.4,1.7,13.4,2c0.3,0,0.7,0.1,1,0.1
		c0,0-0.1,0-0.1,0c0,0,0.1,0,0.2,0c0,0,0,0,0,0c0,0,0,0,0,0c0.3,0,1.1,0.1,2.3,0.2c0.8,0.1,1.3,0.1,1.3,0.1s-0.1,0-0.3,0
		c1.5,0.1,3.5,0.3,6.3,0.5c7,0.4,13.6,1.1,19.7,1.5c6.1,0.4,11.7,0.6,16.5,0c4.8-0.6,8.7-1.9,11-3.8c0.6-0.4,1-0.9,1.4-1.4
		c0.5,1.2,1.1,2.4,1.7,3.7c1.5,2.9,3.1,5.9,4.4,8.4c1.3,2.5,2.2,4.5,2.3,5.4c0.6,3.7,0.7,6.5,0.8,8.4c0,0.5,0,1,0,1.4c0,0,0,0,0,0
		c0,0,0,0,0,0c0,0.1,0,0.3,0,0.4c0-0.1,0-0.1,0-0.2c0,0.2,0,0.6,0,0.9c0-0.1,0-0.2,0-0.4c0,0.3,0,0.5,0,0.6c0,0.9,0,2.2-0.1,4
		c-0.3,4.3-1.7,8.2-3.6,11.1c-1.8,3-4,5-5.8,6.6c-1.1,0.9-2,1.7-2.8,2.5c-0.8,0.3-1.5,0.6-2.2,0.8c-2,0.8-3.9,1.6-5.4,2.4
		c-1.6,0.8-2.9,1.5-4,2.4c-2.1,1.8-3,3.9-2.4,6.7c0.4,1.7,1.5,2.3,3.6,2.3c1,0,2.2-0.3,3.7-0.7c0.7-0.2,1.5-0.4,2.3-0.7
		c0.8-0.3,1.7-0.7,2.6-1.1c1.4-0.6,2.9-1.3,4.6-2.1c0.5-0.1,1-0.4,1.6-0.7c0.7-0.3,1.3-0.7,2.1-1.2c1.5-0.8,3.1-1.7,4.8-2.6
		c2.5-1.4,5.1-3.1,8-4.8c1.4-0.9,2.8-1.9,4.3-2.9c1.5-1,3-1.9,4.5-3.1c1.6-1.2,3.1-2.3,4.3-3.2c1.2-0.9,2.2-1.8,3-2.5
		c0.3-0.2,0.6-0.5,1-0.8c1.1-0.9,1.8-1.5,2.3-1.9c0.1-0.1,0.2-0.2,0.3-0.2c0.8-0.7,1.5-1.3,2-1.9c0.1-0.1,0.1-0.1,0.2-0.2
		c0,0,0.2-0.2,0.7-0.6c0.2-0.2,0.5-0.5,0.8-0.8c0,0-0.1,0.1-0.1,0.1c0,0,0.1-0.1,0.1-0.1c0.4-0.3,0.8-0.7,1.3-1.2
		c0.3-0.3,0.4-0.4,0.5-0.5c-0.1,0-0.2,0.2-0.4,0.4C469.3,488.6,469.8,488.2,470.3,487.6z M444.6,477.9c0-0.2,0-0.3,0-0.3
		C444.6,477.7,444.6,477.8,444.6,477.9z M377.2,450.8c-0.9-0.1-1.6-0.1-2.2-0.2C375.7,450.7,376.6,450.8,377.2,450.8z M373.2,450.5
		C373.2,450.5,373.1,450.5,373.2,450.5c-0.1,0-0.2,0-0.3,0C373,450.5,373.1,450.5,373.2,450.5z M369.1,450.1
		C369.1,450.1,369.1,450.1,369.1,450.1C369.1,450.1,369.1,450.1,369.1,450.1C369.1,450.1,369.1,450.1,369.1,450.1z"></path>
	<path class="stblack" d="M463.8,493.9C463.8,493.9,463.8,493.9,463.8,493.9C464.2,493.6,464.3,493.5,463.8,493.9z"></path>
	<path class="stblack" d="M467.2,490.7c0.1-0.1,0.2-0.2,0.3-0.3c-0.4,0.4-0.9,0.8-1.4,1.4C466,491.8,466.5,491.3,467.2,490.7z"></path>
	<path class="stblack" d="M458.3,488.6c-0.2,0.1-0.3,0.2-0.4,0.3C458,488.9,458.2,488.8,458.3,488.6z"></path>
	<path class="stblack" d="M458,488.9c-0.1,0.1-0.1,0.1-0.1,0.1S457.9,489,458,488.9z"></path>
	<path class="stblack" d="M461.3,496c-0.3,0.3-0.6,0.5-1,0.8c0,0,0,0,0,0c-2,1.6,0.8-0.6,2.5-2.1c0,0,0,0,0,0C462.2,495.2,461.7,495.7,461.3,496z"></path>
	<path class="stblack" d="M459.7,487.4c0.1-0.1,0.2-0.2,0.4-0.3C459.9,487.2,459.8,487.3,459.7,487.4z"></path>
	<path class="stblack" d="M459.7,487.4C459.6,487.5,459.6,487.5,459.7,487.4C459.6,487.5,459.6,487.5,459.7,487.4
		C459.6,487.5,459.7,487.5,459.7,487.4z"></path>
	<path class="stblack" d="M462.8,494.7c0.4-0.3,0.7-0.6,1-0.9C463.6,494.1,463.3,494.3,462.8,494.7C462.8,494.7,462.8,494.7,462.8,494.7z"></path>
</g>
<g font-family="noto" id="svgTXT" font-size="83"><text x="50%" y="49.035%" fill="4A0F4D" text-anchor="middle" font-weight="bolder" style="fill: rgb(74, 15, 77);">Thank you !</text></g></svg>
